<svg width="470" height="300" viewBox="0 0 470 351" fill="none" xmlns="http://www.w3.org/2000/svg">
<path d="M119.276 142.365V150.683H110.958V142.365H119.276ZM119.276 150.683V159.001H110.958V150.683H119.276ZM119.276 159.001V167.319H110.958V159.001H119.276ZM119.276 167.319V175.638H110.958V167.319H119.276ZM119.276 175.638V183.956H110.958V175.638H119.276ZM119.276 183.956V192.274H110.958V183.956H119.276ZM110.958 183.956V192.274H102.639V183.956H110.958ZM110.958 175.638V183.956H102.639V175.638H110.958ZM110.958 167.319V175.638H102.639V167.319H110.958ZM110.958 159.001V167.319H102.639V159.001H110.958ZM110.958 150.683V159.001H102.639V150.683H110.958ZM110.958 142.365V150.683H102.639V142.365H110.958ZM102.639 159.001V167.319H94.3214V159.001H102.639ZM102.639 167.319V175.638H94.3214V167.319H102.639ZM102.639 150.683V159.001H94.3214V150.683H102.639ZM94.3214 159.001V167.319H86.0033V159.001H94.3214ZM94.3214 167.319V175.638H86.0033V167.319H94.3214ZM86.0033 167.319V175.638H77.6851V167.319H86.0033ZM86.0033 175.638V183.956H77.6851V175.638H86.0033ZM77.6851 175.638V183.956H69.367V175.638H77.6851ZM77.6851 183.956V192.274H69.367V183.956H77.6851ZM77.6851 192.274V200.592H69.367V192.274H77.6851ZM69.367 192.274V200.592H61.0489V192.274H69.367ZM69.367 200.592V208.91H61.0489V200.592H69.367ZM61.0489 200.592V208.91H52.7308V200.592H61.0489ZM61.0489 208.91V217.228H52.7308V208.91H61.0489ZM52.7308 208.91V217.228H44.4126V208.91H52.7308ZM52.7308 217.228V225.546H44.4126V217.228H52.7308ZM44.4126 217.228V225.546H36.0945V217.228H44.4126ZM44.4126 225.546V233.864H36.0945V225.546H44.4126ZM36.0945 225.546V233.864H27.7764V225.546H36.0945ZM36.0945 217.228V225.546H27.7764V217.228H36.0945ZM44.4126 208.91V217.228H36.0945V208.91H44.4126ZM52.7308 200.592V208.91H44.4126V200.592H52.7308ZM61.0489 192.274V200.592H52.7308V192.274H61.0489ZM69.367 183.956V192.274H61.0489V183.956H69.367ZM102.639 183.956V192.274H94.3214V183.956H102.639ZM102.639 192.274V200.592H94.3214V192.274H102.639ZM94.3214 192.274V200.592H86.0033V192.274H94.3214ZM94.3214 200.592V208.91H86.0033V200.592H94.3214ZM86.0033 200.592V208.91H77.6851V200.592H86.0033ZM86.0033 208.91V217.228H77.6851V208.91H86.0033ZM77.6851 217.228V225.546H69.367V217.228H77.6851ZM69.367 225.546V233.864H61.0489V225.546H69.367ZM69.367 233.864V242.183H61.0489V233.864H69.367ZM61.0489 233.864V242.183H52.7308V233.864H61.0489ZM102.639 175.638V183.956H94.3214V175.638H102.639ZM94.3214 175.638V183.956H86.0033V175.638H94.3214ZM86.0033 183.956V192.274H77.6851V183.956H86.0033ZM86.0033 192.274V200.592H77.6851V192.274H86.0033ZM94.3214 183.956V192.274H86.0033V183.956H94.3214ZM77.6851 200.592V208.91H69.367V200.592H77.6851ZM69.367 208.91V217.228H61.0489V208.91H69.367ZM69.367 217.228V225.546H61.0489V217.228H69.367ZM61.0489 217.228V225.546H52.7308V217.228H61.0489ZM61.0489 225.546V233.864H52.7308V225.546H61.0489ZM52.7308 225.546V233.864H44.4126V225.546H52.7308ZM52.7308 233.864V242.183H44.4126V233.864H52.7308ZM77.6851 208.91V217.228H69.367V208.91H77.6851ZM69.367 242.183V250.501H61.0489V242.183H69.367ZM69.367 250.501V258.819H61.0489V250.501H69.367ZM69.367 258.819V267.137H61.0489V258.819H69.367ZM77.6851 258.819V267.137H69.367V258.819H77.6851ZM86.0033 258.819V267.137H77.6851V258.819H86.0033ZM94.3214 258.819V267.137H86.0033V258.819H94.3214ZM102.639 258.819V267.137H94.3214V258.819H102.639ZM110.958 258.819V267.137H102.639V258.819H110.958ZM119.276 258.819V267.137H110.958V258.819H119.276ZM119.276 250.501V258.819H110.958V250.501H119.276ZM119.276 242.183V250.501H110.958V242.183H119.276ZM119.276 233.864V242.183H110.958V233.864H119.276ZM119.276 225.546V233.864H110.958V225.546H119.276ZM119.276 217.228V225.546H110.958V217.228H119.276ZM119.276 208.91V217.228H110.958V208.91H119.276ZM119.276 200.592V208.91H110.958V200.592H119.276ZM127.594 200.592V208.91H119.276V200.592H127.594ZM127.594 192.274V200.592H119.276V192.274H127.594ZM119.276 192.274V200.592H110.958V192.274H119.276ZM127.594 134.047V142.365H119.276V134.047H127.594ZM135.912 134.047V142.365H127.594V134.047H135.912ZM119.276 134.047V142.365H110.958V134.047H119.276ZM144.23 134.047V142.365H135.912V134.047H144.23ZM152.548 134.047V142.365H144.23V134.047H152.548ZM152.548 142.365V150.683H144.23V142.365H152.548ZM152.548 150.683V159.001H144.23V150.683H152.548ZM152.548 159.001V167.319H144.23V159.001H152.548ZM152.548 167.319V175.638H144.23V167.319H152.548ZM152.548 175.638V183.956H144.23V175.638H152.548ZM152.548 183.956V192.274H144.23V183.956H152.548ZM152.548 192.274V200.592H144.23V192.274H152.548ZM152.548 200.592V208.91H144.23V200.592H152.548ZM152.548 208.91V217.228H144.23V208.91H152.548ZM152.548 217.228V225.546H144.23V217.228H152.548ZM152.548 225.546V233.864H144.23V225.546H152.548ZM152.548 233.864V242.183H144.23V233.864H152.548ZM152.548 242.183V250.501H144.23V242.183H152.548ZM152.548 250.501V258.819H144.23V250.501H152.548ZM152.548 258.819V267.137H144.23V258.819H152.548ZM152.548 267.137V275.455H144.23V267.137H152.548ZM152.548 275.455V283.773H144.23V275.455H152.548ZM152.548 283.773V292.091H144.23V283.773H152.548ZM144.23 283.773V292.091H135.912V283.773H144.23ZM144.23 292.091V300.409H135.912V292.091H144.23ZM135.912 292.091V300.409H127.594V292.091H135.912ZM127.594 300.409V308.728H119.276V300.409H127.594ZM119.276 300.409V308.728H110.958V300.409H119.276ZM119.276 292.091V300.409H110.958V292.091H119.276ZM110.958 292.091V300.409H102.639V292.091H110.958ZM102.639 292.091V300.409H94.3214V292.091H102.639ZM94.3214 292.091V300.409H86.0033V292.091H94.3214ZM86.0033 292.091V300.409H77.6851V292.091H86.0033ZM77.6851 292.091V300.409H69.367V292.091H77.6851ZM69.367 292.091V300.409H61.0489V292.091H69.367ZM61.0489 292.091V300.409H52.7308V292.091H61.0489ZM52.7308 292.091V300.409H44.4126V292.091H52.7308ZM44.4126 292.091V300.409H36.0945V292.091H44.4126ZM36.0945 292.091V300.409H27.7764V292.091H36.0945ZM36.0945 283.773V292.091H27.7764V283.773H36.0945ZM36.0945 275.455V283.773H27.7764V275.455H36.0945ZM36.0945 267.137V275.455H27.7764V267.137H36.0945ZM36.0945 258.819V267.137H27.7764V258.819H36.0945ZM36.0945 250.501V258.819H27.7764V250.501H36.0945ZM44.4126 250.501V258.819H36.0945V250.501H44.4126ZM44.4126 242.183V250.501H36.0945V242.183H44.4126ZM44.4126 233.864V242.183H36.0945V233.864H44.4126ZM36.0945 233.864V242.183H27.7764V233.864H36.0945ZM36.0945 242.183V250.501H27.7764V242.183H36.0945ZM52.7308 242.183V250.501H44.4126V242.183H52.7308ZM61.0489 242.183V250.501H52.7308V242.183H61.0489ZM61.0489 250.501V258.819H52.7308V250.501H61.0489ZM61.0489 258.819V267.137H52.7308V258.819H61.0489ZM61.0489 267.137V275.455H52.7308V267.137H61.0489ZM52.7308 267.137V275.455H44.4126V267.137H52.7308ZM52.7308 258.819V267.137H44.4126V258.819H52.7308ZM52.7308 250.501V258.819H44.4126V250.501H52.7308ZM44.4126 258.819V267.137H36.0945V258.819H44.4126ZM44.4126 267.137V275.455H36.0945V267.137H44.4126ZM44.4126 275.455V283.773H36.0945V275.455H44.4126ZM44.4126 283.773V292.091H36.0945V283.773H44.4126ZM52.7308 283.773V292.091H44.4126V283.773H52.7308ZM61.0489 283.773V292.091H52.7308V283.773H61.0489ZM69.367 283.773V292.091H61.0489V283.773H69.367ZM77.6851 283.773V292.091H69.367V283.773H77.6851ZM86.0033 283.773V292.091H77.6851V283.773H86.0033ZM94.3214 283.773V292.091H86.0033V283.773H94.3214ZM102.639 283.773V292.091H94.3214V283.773H102.639ZM110.958 283.773V292.091H102.639V283.773H110.958ZM119.276 283.773V292.091H110.958V283.773H119.276ZM127.594 283.773V292.091H119.276V283.773H127.594ZM135.912 283.773V292.091H127.594V283.773H135.912ZM127.594 292.091V300.409H119.276V292.091H127.594ZM144.23 275.455V283.773H135.912V275.455H144.23ZM135.912 275.455V283.773H127.594V275.455H135.912ZM127.594 275.455V283.773H119.276V275.455H127.594ZM127.594 267.137V275.455H119.276V267.137H127.594ZM119.276 267.137V275.455H110.958V267.137H119.276ZM110.958 267.137V275.455H102.639V267.137H110.958ZM102.639 267.137V275.455H94.3214V267.137H102.639ZM94.3214 267.137V275.455H86.0033V267.137H94.3214ZM86.0033 267.137V275.455H77.6851V267.137H86.0033ZM77.6851 267.137V275.455H69.367V267.137H77.6851ZM69.367 267.137V275.455H61.0489V267.137H69.367ZM52.7308 275.455V283.773H44.4126V275.455H52.7308ZM61.0489 275.455V283.773H52.7308V275.455H61.0489ZM69.367 275.455V283.773H61.0489V275.455H69.367ZM77.6851 275.455V283.773H69.367V275.455H77.6851ZM86.0033 275.455V283.773H77.6851V275.455H86.0033ZM94.3214 275.455V283.773H86.0033V275.455H94.3214ZM102.639 275.455V283.773H94.3214V275.455H102.639ZM110.958 275.455V283.773H102.639V275.455H110.958ZM119.276 275.455V283.773H110.958V275.455H119.276ZM127.594 258.819V267.137H119.276V258.819H127.594ZM127.594 250.501V258.819H119.276V250.501H127.594ZM127.594 242.183V250.501H119.276V242.183H127.594ZM127.594 233.864V242.183H119.276V233.864H127.594ZM127.594 225.546V233.864H119.276V225.546H127.594ZM127.594 217.228V225.546H119.276V217.228H127.594ZM135.912 208.91V217.228H127.594V208.91H135.912ZM135.912 200.592V208.91H127.594V200.592H135.912ZM135.912 192.274V200.592H127.594V192.274H135.912ZM135.912 183.956V192.274H127.594V183.956H135.912ZM135.912 175.638V183.956H127.594V175.638H135.912ZM127.594 175.638V183.956H119.276V175.638H127.594ZM127.594 167.319V175.638H119.276V167.319H127.594ZM127.594 159.001V167.319H119.276V159.001H127.594ZM127.594 150.683V159.001H119.276V150.683H127.594ZM127.594 142.365V150.683H119.276V142.365H127.594ZM135.912 142.365V150.683H127.594V142.365H135.912ZM144.23 142.365V150.683H135.912V142.365H144.23ZM144.23 150.683V159.001H135.912V150.683H144.23ZM144.23 159.001V167.319H135.912V159.001H144.23ZM144.23 167.319V175.638H135.912V167.319H144.23ZM144.23 175.638V183.956H135.912V175.638H144.23ZM144.23 183.956V192.274H135.912V183.956H144.23ZM144.23 192.274V200.592H135.912V192.274H144.23ZM144.23 200.592V208.91H135.912V200.592H144.23ZM144.23 208.91V217.228H135.912V208.91H144.23ZM144.23 217.228V225.546H135.912V217.228H144.23ZM144.23 225.546V233.864H135.912V225.546H144.23ZM144.23 233.864V242.183H135.912V233.864H144.23ZM144.23 242.183V250.501H135.912V242.183H144.23ZM144.23 250.501V258.819H135.912V250.501H144.23ZM144.23 258.819V267.137H135.912V258.819H144.23ZM144.23 267.137V275.455H135.912V267.137H144.23ZM135.912 267.137V275.455H127.594V267.137H135.912ZM135.912 258.819V267.137H127.594V258.819H135.912ZM135.912 250.501V258.819H127.594V250.501H135.912ZM135.912 233.864V242.183H127.594V233.864H135.912ZM135.912 242.183V250.501H127.594V242.183H135.912ZM135.912 217.228V225.546H127.594V217.228H135.912ZM135.912 225.546V233.864H127.594V225.546H135.912ZM127.594 183.956V192.274H119.276V183.956H127.594ZM127.594 208.91V217.228H119.276V208.91H127.594ZM135.912 167.319V175.638H127.594V167.319H135.912ZM135.912 159.001V167.319H127.594V159.001H135.912ZM135.912 150.683V159.001H127.594V150.683H135.912ZM119.276 308.728V317.046H110.958V308.728H119.276ZM119.276 317.046V325.364H110.958V317.046H119.276ZM119.276 325.364V333.682H110.958V325.364H119.276ZM119.276 333.682V342H110.958V333.682H119.276ZM127.594 333.682V342H119.276V333.682H127.594ZM135.912 333.682V342H127.594V333.682H135.912ZM144.23 333.682V342H135.912V333.682H144.23ZM152.548 325.364V333.682H144.23V325.364H152.548ZM152.548 317.046V325.364H144.23V317.046H152.548ZM152.548 333.682V342H144.23V333.682H152.548ZM152.548 308.728V317.046H144.23V308.728H152.548ZM152.548 300.409V308.728H144.23V300.409H152.548ZM152.548 292.091V300.409H144.23V292.091H152.548ZM144.23 300.409V308.728H135.912V300.409H144.23ZM144.23 308.728V317.046H135.912V308.728H144.23ZM135.912 308.728V317.046H127.594V308.728H135.912ZM135.912 317.046V325.364H127.594V317.046H135.912ZM135.912 325.364V333.682H127.594V325.364H135.912ZM144.23 325.364V333.682H135.912V325.364H144.23ZM144.23 317.046V325.364H135.912V317.046H144.23ZM127.594 325.364V333.682H119.276V325.364H127.594ZM135.912 300.409V308.728H127.594V300.409H135.912ZM127.594 317.046V325.364H119.276V317.046H127.594ZM127.594 308.728V317.046H119.276V308.728H127.594ZM185.767 300.409V308.728H177.449V300.409H185.767ZM185.767 292.091V300.409H177.449V292.091H185.767ZM185.767 283.773V292.091H177.449V283.773H185.767ZM185.767 275.455V283.773H177.449V275.455H185.767ZM185.767 267.137V275.455H177.449V267.137H185.767ZM185.767 258.819V267.137H177.449V258.819H185.767ZM185.767 250.501V258.819H177.449V250.501H185.767ZM185.767 242.183V250.501H177.449V242.183H185.767ZM185.767 233.864V242.183H177.449V233.864H185.767ZM185.767 225.546V233.864H177.449V225.546H185.767ZM185.767 217.228V225.546H177.449V217.228H185.767ZM194.085 217.228V225.546H185.767V217.228H194.085ZM194.085 225.546V233.864H185.767V225.546H194.085ZM194.085 233.864V242.183H185.767V233.864H194.085ZM194.085 242.183V250.501H185.767V242.183H194.085ZM194.085 250.501V258.819H185.767V250.501H194.085ZM194.085 258.819V267.137H185.767V258.819H194.085ZM194.085 267.137V275.455H185.767V267.137H194.085ZM202.403 275.455V283.773H194.085V275.455H202.403ZM202.403 283.773V292.091H194.085V283.773H202.403ZM202.403 292.091V300.409H194.085V292.091H202.403ZM202.403 300.409V308.728H194.085V300.409H202.403ZM202.403 308.728V317.046H194.085V308.728H202.403ZM202.403 317.046V325.364H194.085V317.046H202.403ZM202.403 325.364V333.682H194.085V325.364H202.403ZM219.04 333.682V342H210.722V333.682H219.04ZM219.04 325.364V333.682H210.722V325.364H219.04ZM219.04 317.046V325.364H210.722V317.046H219.04ZM219.04 308.728V317.046H210.722V308.728H219.04ZM219.04 300.409V308.728H210.722V300.409H219.04ZM219.04 292.091V300.409H210.722V292.091H219.04ZM219.04 283.773V292.091H210.722V283.773H219.04ZM219.04 275.455V283.773H210.722V275.455H219.04ZM210.722 275.455V283.773H202.403V275.455H210.722ZM210.722 267.137V275.455H202.403V267.137H210.722ZM210.722 283.773V292.091H202.403V283.773H210.722ZM210.722 292.091V300.409H202.403V292.091H210.722ZM210.722 300.409V308.728H202.403V300.409H210.722ZM210.722 308.728V317.046H202.403V308.728H210.722ZM210.722 317.046V325.364H202.403V317.046H210.722ZM210.722 325.364V333.682H202.403V325.364H210.722ZM194.085 317.046V325.364H185.767V317.046H194.085ZM194.085 308.728V317.046H185.767V308.728H194.085ZM194.085 300.409V308.728H185.767V300.409H194.085ZM194.085 292.091V300.409H185.767V292.091H194.085ZM194.085 283.773V292.091H185.767V283.773H194.085ZM194.085 275.455V283.773H185.767V275.455H194.085ZM185.767 208.91V217.228H177.449V208.91H185.767ZM210.722 208.91V217.228H202.403V208.91H210.722ZM210.722 217.228V225.546H202.403V217.228H210.722ZM210.722 225.546V233.864H202.403V225.546H210.722ZM210.722 233.864V242.183H202.403V233.864H210.722ZM210.722 242.183V250.501H202.403V242.183H210.722ZM219.04 250.501V258.819H210.722V250.501H219.04ZM219.04 258.819V267.137H210.722V258.819H219.04ZM219.04 267.137V275.455H210.722V267.137H219.04ZM219.04 242.183V250.501H210.722V242.183H219.04ZM219.04 233.864V242.183H210.722V233.864H219.04ZM219.04 225.546V233.864H210.722V225.546H219.04ZM219.04 217.228V225.546H210.722V217.228H219.04ZM219.04 208.91V217.228H210.722V208.91H219.04ZM194.085 208.91V217.228H185.767V208.91H194.085ZM202.403 208.91V217.228H194.085V208.91H202.403ZM202.403 217.228V225.546H194.085V217.228H202.403ZM202.403 225.546V233.864H194.085V225.546H202.403ZM202.403 233.864V242.183H194.085V233.864H202.403ZM202.403 242.183V250.501H194.085V242.183H202.403ZM202.403 250.501V258.819H194.085V250.501H202.403ZM202.403 258.819V267.137H194.085V258.819H202.403ZM202.403 267.137V275.455H194.085V267.137H202.403ZM210.722 258.819V267.137H202.403V258.819H210.722ZM210.722 250.501V258.819H202.403V250.501H210.722ZM268.948 333.682V342H260.63V333.682H268.948ZM268.948 325.364V333.682H260.63V325.364H268.948ZM268.948 317.046V325.364H260.63V317.046H268.948ZM268.948 308.728V317.046H260.63V308.728H268.948ZM268.948 300.409V308.728H260.63V300.409H268.948ZM268.948 292.091V300.409H260.63V292.091H268.948ZM268.948 283.773V292.091H260.63V283.773H268.948ZM268.948 275.455V283.773H260.63V275.455H268.948ZM268.948 267.137V275.455H260.63V267.137H268.948ZM268.948 258.819V267.137H260.63V258.819H268.948ZM268.948 250.501V258.819H260.63V250.501H268.948ZM268.948 242.183V250.501H260.63V242.183H268.948ZM268.948 233.864V242.183H260.63V233.864H268.948ZM268.948 225.546V233.864H260.63V225.546H268.948ZM268.948 217.228V225.546H260.63V217.228H268.948ZM277.266 217.228V225.546H268.948V217.228H277.266ZM277.266 225.546V233.864H268.948V225.546H277.266ZM277.266 233.864V242.183H268.948V233.864H277.266ZM277.266 242.183V250.501H268.948V242.183H277.266ZM277.266 250.501V258.819H268.948V250.501H277.266ZM277.266 258.819V267.137H268.948V258.819H277.266ZM277.266 267.137V275.455H268.948V267.137H277.266ZM285.585 275.455V283.773H277.266V275.455H285.585ZM285.585 283.773V292.091H277.266V283.773H285.585ZM285.585 292.091V300.409H277.266V292.091H285.585ZM285.585 300.409V308.728H277.266V300.409H285.585ZM285.585 308.728V317.046H277.266V308.728H285.585ZM285.585 317.046V325.364H277.266V317.046H285.585ZM285.585 325.364V333.682H277.266V325.364H285.585ZM302.221 300.409V308.728H293.903V300.409H302.221ZM302.221 292.091V300.409H293.903V292.091H302.221ZM302.221 283.773V292.091H293.903V283.773H302.221ZM302.221 275.455V283.773H293.903V275.455H302.221ZM293.903 275.455V283.773H285.585V275.455H293.903ZM293.903 267.137V275.455H285.585V267.137H293.903ZM293.903 283.773V292.091H285.585V283.773H293.903ZM293.903 292.091V300.409H285.585V292.091H293.903ZM293.903 300.409V308.728H285.585V300.409H293.903ZM293.903 308.728V317.046H285.585V308.728H293.903ZM293.903 317.046V325.364H285.585V317.046H293.903ZM277.266 325.364V333.682H268.948V325.364H277.266ZM277.266 317.046V325.364H268.948V317.046H277.266ZM277.266 308.728V317.046H268.948V308.728H277.266ZM277.266 300.409V308.728H268.948V300.409H277.266ZM277.266 292.091V300.409H268.948V292.091H277.266ZM277.266 283.773V292.091H268.948V283.773H277.266ZM277.266 275.455V283.773H268.948V275.455H277.266ZM268.948 208.91V217.228H260.63V208.91H268.948ZM293.903 208.91V217.228H285.585V208.91H293.903ZM293.903 217.228V225.546H285.585V217.228H293.903ZM293.903 225.546V233.864H285.585V225.546H293.903ZM293.903 233.864V242.183H285.585V233.864H293.903ZM293.903 242.183V250.501H285.585V242.183H293.903ZM302.221 250.501V258.819H293.903V250.501H302.221ZM302.221 258.819V267.137H293.903V258.819H302.221ZM302.221 267.137V275.455H293.903V267.137H302.221ZM302.221 242.183V250.501H293.903V242.183H302.221ZM302.221 233.864V242.183H293.903V233.864H302.221ZM302.221 225.546V233.864H293.903V225.546H302.221ZM302.221 217.228V225.546H293.903V217.228H302.221ZM302.221 208.91V217.228H293.903V208.91H302.221ZM277.266 208.91V217.228H268.948V208.91H277.266ZM285.585 208.91V217.228H277.266V208.91H285.585ZM285.585 217.228V225.546H277.266V217.228H285.585ZM285.585 225.546V233.864H277.266V225.546H285.585ZM285.585 233.864V242.183H277.266V233.864H285.585ZM285.585 242.183V250.501H277.266V242.183H285.585ZM285.585 250.501V258.819H277.266V250.501H285.585ZM285.585 258.819V267.137H277.266V258.819H285.585ZM285.585 267.137V275.455H277.266V267.137H285.585ZM293.903 258.819V267.137H285.585V258.819H293.903ZM293.903 250.501V258.819H285.585V250.501H293.903ZM227.358 333.682V342H219.04V333.682H227.358ZM235.676 333.682V342H227.358V333.682H235.676ZM243.994 333.682V342H235.676V333.682H243.994ZM252.312 333.682V342H243.994V333.682H252.312ZM260.63 333.682V342H252.312V333.682H260.63ZM260.63 325.364V333.682H252.312V325.364H260.63ZM252.312 325.364V333.682H243.994V325.364H252.312ZM243.994 325.364V333.682H235.676V325.364H243.994ZM235.676 325.364V333.682H227.358V325.364H235.676ZM227.358 325.364V333.682H219.04V325.364H227.358ZM227.358 317.046V325.364H219.04V317.046H227.358ZM235.676 317.046V325.364H227.358V317.046H235.676ZM243.994 317.046V325.364H235.676V317.046H243.994ZM252.312 317.046V325.364H243.994V317.046H252.312ZM260.63 317.046V325.364H252.312V317.046H260.63ZM260.63 308.728V317.046H252.312V308.728H260.63ZM252.312 308.728V317.046H243.994V308.728H252.312ZM243.994 308.728V317.046H235.676V308.728H243.994ZM235.676 308.728V317.046H227.358V308.728H235.676ZM227.358 308.728V317.046H219.04V308.728H227.358ZM227.358 300.409V308.728H219.04V300.409H227.358ZM260.63 300.409V308.728H252.312V300.409H260.63ZM293.903 175.638V167.319H302.221V175.638H293.903ZM293.903 183.956V175.638H302.221V183.956H293.903ZM293.903 192.274V183.956H302.221V192.274H293.903ZM277.266 192.274V183.956H285.585V192.274H277.266ZM277.266 183.956V175.638H285.585V183.956H277.266ZM277.266 175.638V167.319H285.585V175.638H277.266ZM277.266 167.319V159.001H285.585V167.319H277.266ZM277.266 159.001V150.683H285.585V159.001H277.266ZM277.266 150.683V142.365H285.585V150.683H277.266ZM260.63 142.365V134.047H268.948V142.365H260.63ZM260.63 150.683V142.365H268.948V150.683H260.63ZM260.63 159.001V150.683H268.948V159.001H260.63ZM260.63 167.319V159.001H268.948V167.319H260.63ZM260.63 175.638V167.319H268.948V175.638H260.63ZM260.63 183.956V175.638H268.948V183.956H260.63ZM260.63 192.274V183.956H268.948V192.274H260.63ZM268.948 192.274V183.956H277.266V192.274H268.948ZM268.948 183.956V175.638H277.266V183.956H268.948ZM268.948 175.638V167.319H277.266V175.638H268.948ZM268.948 167.319V159.001H277.266V167.319H268.948ZM268.948 159.001V150.683H277.266V159.001H268.948ZM268.948 150.683V142.365H277.266V150.683H268.948ZM285.585 159.001V150.683H293.903V159.001H285.585ZM285.585 167.319V159.001H293.903V167.319H285.585ZM285.585 175.638V167.319H293.903V175.638H285.585ZM285.585 183.956V175.638H293.903V183.956H285.585ZM285.585 192.274V183.956H293.903V192.274H285.585ZM210.722 142.365V134.047H219.04V142.365H210.722ZM210.722 150.683V142.365H219.04V150.683H210.722ZM210.722 159.001V150.683H219.04V159.001H210.722ZM210.722 167.319V159.001H219.04V167.319H210.722ZM210.722 175.638V167.319H219.04V175.638H210.722ZM210.722 183.956V175.638H219.04V183.956H210.722ZM210.722 192.274V183.956H219.04V192.274H210.722ZM194.085 192.274V183.956H202.403V192.274H194.085ZM194.085 183.956V175.638H202.403V183.956H194.085ZM194.085 175.638V167.319H202.403V175.638H194.085ZM194.085 167.319V159.001H202.403V167.319H194.085ZM194.085 159.001V150.683H202.403V159.001H194.085ZM194.085 150.683V142.365H202.403V150.683H194.085ZM177.449 175.638V167.319H185.767V175.638H177.449ZM177.449 183.956V175.638H185.767V183.956H177.449ZM177.449 192.274V183.956H185.767V192.274H177.449ZM185.767 192.274V183.956H194.085V192.274H185.767ZM185.767 183.956V175.638H194.085V183.956H185.767ZM185.767 175.638V167.319H194.085V175.638H185.767ZM185.767 167.319V159.001H194.085V167.319H185.767ZM185.767 159.001V150.683H194.085V159.001H185.767ZM202.403 150.683V142.365H210.722V150.683H202.403ZM202.403 159.001V150.683H210.722V159.001H202.403ZM202.403 167.319V159.001H210.722V167.319H202.403ZM202.403 175.638V167.319H210.722V175.638H202.403ZM202.403 183.956V175.638H210.722V183.956H202.403ZM202.403 192.274V183.956H210.722V192.274H202.403ZM252.312 142.365V134.047H260.63V142.365H252.312ZM243.994 142.365V134.047H252.312V142.365H243.994ZM235.676 142.365V134.047H243.994V142.365H235.676ZM219.04 142.365V134.047H227.358V142.365H219.04ZM219.04 150.683V142.365H227.358V150.683H219.04ZM227.358 150.683V142.365H235.676V150.683H227.358ZM235.676 150.683V142.365H243.994V150.683H235.676ZM243.994 150.683V142.365H252.312V150.683H243.994ZM252.312 150.683V142.365H260.63V150.683H252.312ZM252.312 159.001V150.683H260.63V159.001H252.312ZM243.994 159.001V150.683H252.312V159.001H243.994ZM235.676 159.001V150.683H243.994V159.001H235.676ZM227.358 159.001V150.683H235.676V159.001H227.358ZM219.04 159.001V150.683H227.358V159.001H219.04ZM219.04 167.319V159.001H227.358V167.319H219.04ZM227.358 167.319V159.001H235.676V167.319H227.358ZM235.676 167.319V159.001H243.994V167.319H235.676ZM243.994 167.319V159.001H252.312V167.319H243.994ZM252.312 167.319V159.001H260.63V167.319H252.312ZM252.312 175.638V167.319H260.63V175.638H252.312ZM219.04 175.638V167.319H227.358V175.638H219.04ZM185.767 200.592V208.91H177.449V200.592H185.767ZM194.085 200.592V208.91H185.767V200.592H194.085ZM185.767 192.274V200.592H177.449V192.274H185.767ZM210.722 192.274V200.592H202.403V192.274H210.722ZM210.722 200.592V208.91H202.403V200.592H210.722ZM219.04 200.592V208.91H210.722V200.592H219.04ZM219.04 192.274V200.592H210.722V192.274H219.04ZM194.085 192.274V200.592H185.767V192.274H194.085ZM202.403 192.274V200.592H194.085V192.274H202.403ZM202.403 200.592V208.91H194.085V200.592H202.403ZM268.948 200.592V208.91H260.63V200.592H268.948ZM277.266 200.592V208.91H268.948V200.592H277.266ZM268.948 192.274V200.592H260.63V192.274H268.948ZM293.903 192.274V200.592H285.585V192.274H293.903ZM293.903 200.592V208.91H285.585V200.592H293.903ZM302.221 200.592V208.91H293.903V200.592H302.221ZM302.221 192.274V200.592H293.903V192.274H302.221ZM277.266 192.274V200.592H268.948V192.274H277.266ZM285.585 192.274V200.592H277.266V192.274H285.585ZM285.585 200.592V208.91H277.266V200.592H285.585ZM235.676 300.409V308.728H227.358V300.409H235.676ZM243.994 300.409V308.728H235.676V300.409H243.994ZM252.312 300.409V308.728H243.994V300.409H252.312ZM260.63 292.091V300.409H252.312V292.091H260.63ZM227.358 292.091V300.409H219.04V292.091H227.358ZM235.676 167.319V175.638H227.358V167.319H235.676ZM243.994 167.319V175.638H235.676V167.319H243.994ZM252.312 167.319V175.638H243.994V167.319H252.312ZM260.63 175.638V183.956H252.312V175.638H260.63ZM227.358 175.638V183.956H219.04V175.638H227.358ZM235.676 134.047V142.365H227.358V134.047H235.676ZM418.621 142.365V150.683H410.303V142.365H418.621ZM418.621 150.683V159.001H410.303V150.683H418.621ZM418.621 159.001V167.319H410.303V159.001H418.621ZM418.621 167.319V175.638H410.303V167.319H418.621ZM418.621 175.638V183.956H410.303V175.638H418.621ZM418.621 183.956V192.274H410.303V183.956H418.621ZM410.303 183.956V192.274H401.985V183.956H410.303ZM410.303 175.638V183.956H401.985V175.638H410.303ZM410.303 167.319V175.638H401.985V167.319H410.303ZM410.303 159.001V167.319H401.985V159.001H410.303ZM410.303 150.683V159.001H401.985V150.683H410.303ZM410.303 142.365V150.683H401.985V142.365H410.303ZM401.985 159.001V167.319H393.667V159.001H401.985ZM401.985 167.319V175.638H393.667V167.319H401.985ZM401.985 150.683V159.001H393.667V150.683H401.985ZM393.667 159.001V167.319H385.348V159.001H393.667ZM393.667 167.319V175.638H385.348V167.319H393.667ZM385.348 167.319V175.638H377.03V167.319H385.348ZM385.348 175.638V183.956H377.03V175.638H385.348ZM377.03 175.638V183.956H368.712V175.638H377.03ZM377.03 183.956V192.274H368.712V183.956H377.03ZM377.03 192.274V200.592H368.712V192.274H377.03ZM368.712 192.274V200.592H360.394V192.274H368.712ZM368.712 200.592V208.91H360.394V200.592H368.712ZM360.394 200.592V208.91H352.076V200.592H360.394ZM360.394 208.91V217.228H352.076V208.91H360.394ZM352.076 208.91V217.228H343.758V208.91H352.076ZM352.076 217.228V225.546H343.758V217.228H352.076ZM343.758 217.228V225.546H335.44V217.228H343.758ZM343.758 225.546V233.864H335.44V225.546H343.758ZM335.44 225.546V233.864H327.122V225.546H335.44ZM335.44 217.228V225.546H327.122V217.228H335.44ZM343.758 208.91V217.228H335.44V208.91H343.758ZM352.076 200.592V208.91H343.758V200.592H352.076ZM360.394 192.274V200.592H352.076V192.274H360.394ZM368.712 183.956V192.274H360.394V183.956H368.712ZM401.985 183.956V192.274H393.667V183.956H401.985ZM401.985 192.274V200.592H393.667V192.274H401.985ZM393.667 192.274V200.592H385.348V192.274H393.667ZM393.667 200.592V208.91H385.348V200.592H393.667ZM385.348 200.592V208.91H377.03V200.592H385.348ZM385.348 208.91V217.228H377.03V208.91H385.348ZM377.03 217.228V225.546H368.712V217.228H377.03ZM368.712 225.546V233.864H360.394V225.546H368.712ZM368.712 233.864V242.183H360.394V233.864H368.712ZM360.394 233.864V242.183H352.076V233.864H360.394ZM401.985 175.638V183.956H393.667V175.638H401.985ZM393.667 175.638V183.956H385.348V175.638H393.667ZM385.348 183.956V192.274H377.03V183.956H385.348ZM385.348 192.274V200.592H377.03V192.274H385.348ZM393.667 183.956V192.274H385.348V183.956H393.667ZM377.03 200.592V208.91H368.712V200.592H377.03ZM368.712 208.91V217.228H360.394V208.91H368.712ZM368.712 217.228V225.546H360.394V217.228H368.712ZM360.394 217.228V225.546H352.076V217.228H360.394ZM360.394 225.546V233.864H352.076V225.546H360.394ZM352.076 225.546V233.864H343.758V225.546H352.076ZM352.076 233.864V242.183H343.758V233.864H352.076ZM377.03 208.91V217.228H368.712V208.91H377.03ZM368.712 242.183V250.501H360.394V242.183H368.712ZM368.712 250.501V258.819H360.394V250.501H368.712ZM368.712 258.819V267.137H360.394V258.819H368.712ZM377.03 258.819V267.137H368.712V258.819H377.03ZM385.348 258.819V267.137H377.03V258.819H385.348ZM393.667 258.819V267.137H385.348V258.819H393.667ZM401.985 258.819V267.137H393.667V258.819H401.985ZM410.303 258.819V267.137H401.985V258.819H410.303ZM418.621 258.819V267.137H410.303V258.819H418.621ZM418.621 250.501V258.819H410.303V250.501H418.621ZM418.621 242.183V250.501H410.303V242.183H418.621ZM418.621 233.864V242.183H410.303V233.864H418.621ZM418.621 225.546V233.864H410.303V225.546H418.621ZM418.621 217.228V225.546H410.303V217.228H418.621ZM418.621 208.91V217.228H410.303V208.91H418.621ZM418.621 200.592V208.91H410.303V200.592H418.621ZM426.939 200.592V208.91H418.621V200.592H426.939ZM426.939 192.274V200.592H418.621V192.274H426.939ZM418.621 192.274V200.592H410.303V192.274H418.621ZM426.939 134.047V142.365H418.621V134.047H426.939ZM435.257 134.047V142.365H426.939V134.047H435.257ZM418.621 134.047V142.365H410.303V134.047H418.621ZM443.575 134.047V142.365H435.257V134.047H443.575ZM451.893 134.047V142.365H443.575V134.047H451.893ZM451.893 142.365V150.683H443.575V142.365H451.893ZM451.893 150.683V159.001H443.575V150.683H451.893ZM451.893 159.001V167.319H443.575V159.001H451.893ZM451.893 167.319V175.638H443.575V167.319H451.893ZM451.893 175.638V183.956H443.575V175.638H451.893ZM451.893 183.956V192.274H443.575V183.956H451.893ZM451.893 192.274V200.592H443.575V192.274H451.893ZM451.893 200.592V208.91H443.575V200.592H451.893ZM451.893 208.91V217.228H443.575V208.91H451.893ZM451.893 217.228V225.546H443.575V217.228H451.893ZM451.893 225.546V233.864H443.575V225.546H451.893ZM451.893 233.864V242.183H443.575V233.864H451.893ZM451.893 242.183V250.501H443.575V242.183H451.893ZM451.893 250.501V258.819H443.575V250.501H451.893ZM451.893 258.819V267.137H443.575V258.819H451.893ZM451.893 267.137V275.455H443.575V267.137H451.893ZM451.893 275.455V283.773H443.575V275.455H451.893ZM451.893 283.773V292.091H443.575V283.773H451.893ZM443.575 283.773V292.091H435.257V283.773H443.575ZM443.575 292.091V300.409H435.257V292.091H443.575ZM435.257 292.091V300.409H426.939V292.091H435.257ZM426.939 300.409V308.728H418.621V300.409H426.939ZM418.621 300.409V308.728H410.303V300.409H418.621ZM418.621 292.091V300.409H410.303V292.091H418.621ZM410.303 292.091V300.409H401.985V292.091H410.303ZM401.985 292.091V300.409H393.667V292.091H401.985ZM393.667 292.091V300.409H385.348V292.091H393.667ZM385.348 292.091V300.409H377.03V292.091H385.348ZM377.03 292.091V300.409H368.712V292.091H377.03ZM368.712 292.091V300.409H360.394V292.091H368.712ZM360.394 292.091V300.409H352.076V292.091H360.394ZM352.076 292.091V300.409H343.758V292.091H352.076ZM343.758 292.091V300.409H335.44V292.091H343.758ZM335.44 292.091V300.409H327.122V292.091H335.44ZM335.44 283.773V292.091H327.122V283.773H335.44ZM335.44 275.455V283.773H327.122V275.455H335.44ZM335.44 267.137V275.455H327.122V267.137H335.44ZM335.44 258.819V267.137H327.122V258.819H335.44ZM335.44 250.501V258.819H327.122V250.501H335.44ZM343.758 250.501V258.819H335.44V250.501H343.758ZM343.758 242.183V250.501H335.44V242.183H343.758ZM343.758 233.864V242.183H335.44V233.864H343.758ZM335.44 233.864V242.183H327.122V233.864H335.44ZM335.44 242.183V250.501H327.122V242.183H335.44ZM352.076 242.183V250.501H343.758V242.183H352.076ZM360.394 242.183V250.501H352.076V242.183H360.394ZM360.394 250.501V258.819H352.076V250.501H360.394ZM360.394 258.819V267.137H352.076V258.819H360.394ZM360.394 267.137V275.455H352.076V267.137H360.394ZM352.076 267.137V275.455H343.758V267.137H352.076ZM352.076 258.819V267.137H343.758V258.819H352.076ZM352.076 250.501V258.819H343.758V250.501H352.076ZM343.758 258.819V267.137H335.44V258.819H343.758ZM343.758 267.137V275.455H335.44V267.137H343.758ZM343.758 275.455V283.773H335.44V275.455H343.758ZM343.758 283.773V292.091H335.44V283.773H343.758ZM352.076 283.773V292.091H343.758V283.773H352.076ZM360.394 283.773V292.091H352.076V283.773H360.394ZM368.712 283.773V292.091H360.394V283.773H368.712ZM377.03 283.773V292.091H368.712V283.773H377.03ZM385.348 283.773V292.091H377.03V283.773H385.348ZM393.667 283.773V292.091H385.348V283.773H393.667ZM401.985 283.773V292.091H393.667V283.773H401.985ZM410.303 283.773V292.091H401.985V283.773H410.303ZM418.621 283.773V292.091H410.303V283.773H418.621ZM426.939 283.773V292.091H418.621V283.773H426.939ZM435.257 283.773V292.091H426.939V283.773H435.257ZM426.939 292.091V300.409H418.621V292.091H426.939ZM443.575 275.455V283.773H435.257V275.455H443.575ZM435.257 275.455V283.773H426.939V275.455H435.257ZM426.939 275.455V283.773H418.621V275.455H426.939ZM426.939 267.137V275.455H418.621V267.137H426.939ZM418.621 267.137V275.455H410.303V267.137H418.621ZM410.303 267.137V275.455H401.985V267.137H410.303ZM401.985 267.137V275.455H393.667V267.137H401.985ZM393.667 267.137V275.455H385.348V267.137H393.667ZM385.348 267.137V275.455H377.03V267.137H385.348ZM377.03 267.137V275.455H368.712V267.137H377.03ZM368.712 267.137V275.455H360.394V267.137H368.712ZM352.076 275.455V283.773H343.758V275.455H352.076ZM360.394 275.455V283.773H352.076V275.455H360.394ZM368.712 275.455V283.773H360.394V275.455H368.712ZM377.03 275.455V283.773H368.712V275.455H377.03ZM385.348 275.455V283.773H377.03V275.455H385.348ZM393.667 275.455V283.773H385.348V275.455H393.667ZM401.985 275.455V283.773H393.667V275.455H401.985ZM410.303 275.455V283.773H401.985V275.455H410.303ZM418.621 275.455V283.773H410.303V275.455H418.621ZM426.939 258.819V267.137H418.621V258.819H426.939ZM426.939 250.501V258.819H418.621V250.501H426.939ZM426.939 242.183V250.501H418.621V242.183H426.939ZM426.939 233.864V242.183H418.621V233.864H426.939ZM426.939 225.546V233.864H418.621V225.546H426.939ZM426.939 217.228V225.546H418.621V217.228H426.939ZM435.257 208.91V217.228H426.939V208.91H435.257ZM435.257 200.592V208.91H426.939V200.592H435.257ZM435.257 192.274V200.592H426.939V192.274H435.257ZM435.257 183.956V192.274H426.939V183.956H435.257ZM435.257 175.638V183.956H426.939V175.638H435.257ZM426.939 175.638V183.956H418.621V175.638H426.939ZM426.939 167.319V175.638H418.621V167.319H426.939ZM426.939 159.001V167.319H418.621V159.001H426.939ZM426.939 150.683V159.001H418.621V150.683H426.939ZM426.939 142.365V150.683H418.621V142.365H426.939ZM435.257 142.365V150.683H426.939V142.365H435.257ZM443.575 142.365V150.683H435.257V142.365H443.575ZM443.575 150.683V159.001H435.257V150.683H443.575ZM443.575 159.001V167.319H435.257V159.001H443.575ZM443.575 167.319V175.638H435.257V167.319H443.575ZM443.575 175.638V183.956H435.257V175.638H443.575ZM443.575 183.956V192.274H435.257V183.956H443.575ZM443.575 192.274V200.592H435.257V192.274H443.575ZM443.575 200.592V208.91H435.257V200.592H443.575ZM443.575 208.91V217.228H435.257V208.91H443.575ZM443.575 217.228V225.546H435.257V217.228H443.575ZM443.575 225.546V233.864H435.257V225.546H443.575ZM443.575 233.864V242.183H435.257V233.864H443.575ZM443.575 242.183V250.501H435.257V242.183H443.575ZM443.575 250.501V258.819H435.257V250.501H443.575ZM443.575 258.819V267.137H435.257V258.819H443.575ZM443.575 267.137V275.455H435.257V267.137H443.575ZM435.257 267.137V275.455H426.939V267.137H435.257ZM435.257 258.819V267.137H426.939V258.819H435.257ZM435.257 250.501V258.819H426.939V250.501H435.257ZM435.257 233.864V242.183H426.939V233.864H435.257ZM435.257 242.183V250.501H426.939V242.183H435.257ZM435.257 217.228V225.546H426.939V217.228H435.257ZM435.257 225.546V233.864H426.939V225.546H435.257ZM426.939 183.956V192.274H418.621V183.956H426.939ZM426.939 208.91V217.228H418.621V208.91H426.939ZM435.257 167.319V175.638H426.939V167.319H435.257ZM435.257 159.001V167.319H426.939V159.001H435.257ZM435.257 150.683V159.001H426.939V150.683H435.257ZM418.621 308.728V317.046H410.303V308.728H418.621ZM418.621 317.046V325.364H410.303V317.046H418.621ZM418.621 325.364V333.682H410.303V325.364H418.621ZM418.621 333.682V342H410.303V333.682H418.621ZM426.939 333.682V342H418.621V333.682H426.939ZM435.257 333.682V342H426.939V333.682H435.257ZM443.575 333.682V342H435.257V333.682H443.575ZM451.893 325.364V333.682H443.575V325.364H451.893ZM451.893 317.046V325.364H443.575V317.046H451.893ZM451.893 333.682V342H443.575V333.682H451.893ZM451.893 308.728V317.046H443.575V308.728H451.893ZM451.893 300.409V308.728H443.575V300.409H451.893ZM451.893 292.091V300.409H443.575V292.091H451.893ZM443.575 300.409V308.728H435.257V300.409H443.575ZM443.575 308.728V317.046H435.257V308.728H443.575ZM435.257 308.728V317.046H426.939V308.728H435.257ZM435.257 317.046V325.364H426.939V317.046H435.257ZM435.257 325.364V333.682H426.939V325.364H435.257ZM443.575 325.364V333.682H435.257V325.364H443.575ZM443.575 317.046V325.364H435.257V317.046H443.575ZM426.939 325.364V333.682H418.621V325.364H426.939ZM435.257 300.409V308.728H426.939V300.409H435.257ZM426.939 317.046V325.364H418.621V317.046H426.939ZM426.939 308.728V317.046H418.621V308.728H426.939Z" fill="url(#paint0_linear_443_25)"/>
<path d="M108.136 150.39V158.708H99.8175V150.39H108.136ZM108.136 158.708V167.026H99.8175V158.708H108.136ZM108.136 167.026V175.345H99.8175V167.026H108.136ZM108.136 175.345V183.663H99.8175V175.345H108.136ZM108.136 183.663V191.981H99.8175V183.663H108.136ZM108.136 191.981V200.299H99.8175V191.981H108.136ZM99.8175 191.981V200.299H91.4994V191.981H99.8175ZM99.8175 183.663V191.981H91.4994V183.663H99.8175ZM99.8175 175.345V183.663H91.4994V175.345H99.8175ZM99.8175 167.026V175.345H91.4994V167.026H99.8175ZM99.8175 158.708V167.026H91.4994V158.708H99.8175ZM99.8175 150.39V158.708H91.4994V150.39H99.8175ZM91.4994 167.026V175.345H83.1812V167.026H91.4994ZM91.4994 175.345V183.663H83.1812V175.345H91.4994ZM91.4994 158.708V167.026H83.1812V158.708H91.4994ZM83.1812 167.026V175.345H74.8631V167.026H83.1812ZM83.1812 175.345V183.663H74.8631V175.345H83.1812ZM74.8631 175.345V183.663H66.545V175.345H74.8631ZM74.8631 183.663V191.981H66.545V183.663H74.8631ZM66.545 183.663V191.981H58.2269V183.663H66.545ZM66.545 191.981V200.299H58.2269V191.981H66.545ZM66.545 200.299V208.617H58.2269V200.299H66.545ZM58.2269 200.299V208.617H49.9087V200.299H58.2269ZM58.2269 208.617V216.935H49.9087V208.617H58.2269ZM49.9087 208.617V216.935H41.5906V208.617H49.9087ZM49.9087 216.935V225.253H41.5906V216.935H49.9087ZM41.5906 216.935V225.253H33.2725V216.935H41.5906ZM41.5906 225.253V233.571H33.2725V225.253H41.5906ZM33.2725 225.253V233.571H24.9544V225.253H33.2725ZM33.2725 233.571V241.89H24.9544V233.571H33.2725ZM24.9544 233.571V241.89H16.6362V233.571H24.9544ZM24.9544 225.253V233.571H16.6362V225.253H24.9544ZM33.2725 216.935V225.253H24.9544V216.935H33.2725ZM41.5906 208.617V216.935H33.2725V208.617H41.5906ZM49.9087 200.299V208.617H41.5906V200.299H49.9087ZM58.2269 191.981V200.299H49.9087V191.981H58.2269ZM91.4994 191.981V200.299H83.1812V191.981H91.4994ZM91.4994 200.299V208.617H83.1812V200.299H91.4994ZM83.1812 200.299V208.617H74.8631V200.299H83.1812ZM83.1812 208.617V216.935H74.8631V208.617H83.1812ZM74.8631 208.617V216.935H66.545V208.617H74.8631ZM74.8631 216.935V225.253H66.545V216.935H74.8631ZM66.545 225.253V233.571H58.2269V225.253H66.545ZM58.2269 233.571V241.89H49.9087V233.571H58.2269ZM58.2269 241.89V250.208H49.9087V241.89H58.2269ZM49.9087 241.89V250.208H41.5906V241.89H49.9087ZM91.4994 183.663V191.981H83.1812V183.663H91.4994ZM83.1812 183.663V191.981H74.8631V183.663H83.1812ZM74.8631 191.981V200.299H66.545V191.981H74.8631ZM74.8631 200.299V208.617H66.545V200.299H74.8631ZM83.1812 191.981V200.299H74.8631V191.981H83.1812ZM66.545 208.617V216.935H58.2269V208.617H66.545ZM58.2269 216.935V225.253H49.9087V216.935H58.2269ZM58.2269 225.253V233.571H49.9087V225.253H58.2269ZM49.9087 225.253V233.571H41.5906V225.253H49.9087ZM49.9087 233.571V241.89H41.5906V233.571H49.9087ZM41.5906 233.571V241.89H33.2725V233.571H41.5906ZM41.5906 241.89V250.208H33.2725V241.89H41.5906ZM66.545 216.935V225.253H58.2269V216.935H66.545ZM58.2269 250.208V258.526H49.9087V250.208H58.2269ZM58.2269 258.526V266.844H49.9087V258.526H58.2269ZM58.2269 266.844V275.162H49.9087V266.844H58.2269ZM66.545 266.844V275.162H58.2269V266.844H66.545ZM74.8631 266.844V275.162H66.545V266.844H74.8631ZM83.1812 266.844V275.162H74.8631V266.844H83.1812ZM91.4994 266.844V275.162H83.1812V266.844H91.4994ZM99.8175 266.844V275.162H91.4994V266.844H99.8175ZM108.136 266.844V275.162H99.8175V266.844H108.136ZM108.136 258.526V266.844H99.8175V258.526H108.136ZM108.136 250.208V258.526H99.8175V250.208H108.136ZM108.136 241.89V250.208H99.8175V241.89H108.136ZM108.136 233.571V241.89H99.8175V233.571H108.136ZM108.136 225.253V233.571H99.8175V225.253H108.136ZM108.136 216.935V225.253H99.8175V216.935H108.136ZM108.136 208.617V216.935H99.8175V208.617H108.136ZM116.454 208.617V216.935H108.136V208.617H116.454ZM116.454 200.299V208.617H108.136V200.299H116.454ZM108.136 200.299V208.617H99.8175V200.299H108.136ZM116.454 142.072V150.39H108.136V142.072H116.454ZM124.772 142.072V150.39H116.454V142.072H124.772ZM108.136 142.072V150.39H99.8175V142.072H108.136ZM133.09 142.072V150.39H124.772V142.072H133.09ZM141.408 142.072V150.39H133.09V142.072H141.408ZM141.408 150.39V158.708H133.09V150.39H141.408ZM141.408 158.708V167.026H133.09V158.708H141.408ZM141.408 167.026V175.345H133.09V167.026H141.408ZM141.408 175.345V183.663H133.09V175.345H141.408ZM141.408 183.663V191.981H133.09V183.663H141.408ZM141.408 191.981V200.299H133.09V191.981H141.408ZM141.408 200.299V208.617H133.09V200.299H141.408ZM141.408 208.617V216.935H133.09V208.617H141.408ZM141.408 216.935V225.253H133.09V216.935H141.408ZM141.408 225.253V233.571H133.09V225.253H141.408ZM141.408 233.571V241.89H133.09V233.571H141.408ZM141.408 241.89V250.208H133.09V241.89H141.408ZM141.408 250.208V258.526H133.09V250.208H141.408ZM141.408 258.526V266.844H133.09V258.526H141.408ZM141.408 266.844V275.162H133.09V266.844H141.408ZM141.408 275.162V283.48H133.09V275.162H141.408ZM141.408 283.48V291.798H133.09V283.48H141.408ZM141.408 291.798V300.116H133.09V291.798H141.408ZM133.09 291.798V300.116H124.772V291.798H133.09ZM133.09 300.116V308.435H124.772V300.116H133.09ZM124.772 300.116V308.435H116.454V300.116H124.772ZM116.454 308.435V316.753H108.136V308.435H116.454ZM108.136 308.435V316.753H99.8175V308.435H108.136ZM108.136 300.116V308.435H99.8175V300.116H108.136ZM99.8175 300.116V308.435H91.4994V300.116H99.8175ZM91.4994 300.116V308.435H83.1812V300.116H91.4994ZM83.1812 300.116V308.435H74.8631V300.116H83.1812ZM74.8631 300.116V308.435H66.545V300.116H74.8631ZM66.545 300.116V308.435H58.2269V300.116H66.545ZM58.2269 300.116V308.435H49.9087V300.116H58.2269ZM49.9087 300.116V308.435H41.5906V300.116H49.9087ZM41.5906 300.116V308.435H33.2725V300.116H41.5906ZM33.2725 300.116V308.435H24.9544V300.116H33.2725ZM24.9544 300.116V308.435H16.6362V300.116H24.9544ZM24.9544 291.798V300.116H16.6362V291.798H24.9544ZM24.9544 283.48V291.798H16.6362V283.48H24.9544ZM24.9544 275.162V283.48H16.6362V275.162H24.9544ZM24.9544 266.844V275.162H16.6362V266.844H24.9544ZM24.9544 258.526V266.844H16.6362V258.526H24.9544ZM33.2725 258.526V266.844H24.9544V258.526H33.2725ZM33.2725 250.208V258.526H24.9544V250.208H33.2725ZM33.2725 241.89V250.208H24.9544V241.89H33.2725ZM24.9544 241.89V250.208H16.6362V241.89H24.9544ZM24.9544 250.208V258.526H16.6362V250.208H24.9544ZM41.5906 250.208V258.526H33.2725V250.208H41.5906ZM49.9087 250.208V258.526H41.5906V250.208H49.9087ZM49.9087 258.526V266.844H41.5906V258.526H49.9087ZM49.9087 266.844V275.162H41.5906V266.844H49.9087ZM49.9087 275.162V283.48H41.5906V275.162H49.9087ZM41.5906 275.162V283.48H33.2725V275.162H41.5906ZM41.5906 266.844V275.162H33.2725V266.844H41.5906ZM41.5906 258.526V266.844H33.2725V258.526H41.5906ZM33.2725 266.844V275.162H24.9544V266.844H33.2725ZM33.2725 275.162V283.48H24.9544V275.162H33.2725ZM33.2725 283.48V291.798H24.9544V283.48H33.2725ZM33.2725 291.798V300.116H24.9544V291.798H33.2725ZM41.5906 291.798V300.116H33.2725V291.798H41.5906ZM49.9087 291.798V300.116H41.5906V291.798H49.9087ZM58.2269 291.798V300.116H49.9087V291.798H58.2269ZM66.545 291.798V300.116H58.2269V291.798H66.545ZM74.8631 291.798V300.116H66.545V291.798H74.8631ZM83.1812 291.798V300.116H74.8631V291.798H83.1812ZM91.4994 291.798V300.116H83.1812V291.798H91.4994ZM99.8175 291.798V300.116H91.4994V291.798H99.8175ZM108.136 291.798V300.116H99.8175V291.798H108.136ZM116.454 291.798V300.116H108.136V291.798H116.454ZM124.772 291.798V300.116H116.454V291.798H124.772ZM116.454 300.116V308.435H108.136V300.116H116.454ZM133.09 283.48V291.798H124.772V283.48H133.09ZM124.772 283.48V291.798H116.454V283.48H124.772ZM116.454 283.48V291.798H108.136V283.48H116.454ZM116.454 275.162V283.48H108.136V275.162H116.454ZM108.136 275.162V283.48H99.8175V275.162H108.136ZM99.8175 275.162V283.48H91.4994V275.162H99.8175ZM91.4994 275.162V283.48H83.1812V275.162H91.4994ZM83.1812 275.162V283.48H74.8631V275.162H83.1812ZM74.8631 275.162V283.48H66.545V275.162H74.8631ZM66.545 275.162V283.48H58.2269V275.162H66.545ZM58.2269 275.162V283.48H49.9087V275.162H58.2269ZM41.5906 283.48V291.798H33.2725V283.48H41.5906ZM49.9087 283.48V291.798H41.5906V283.48H49.9087ZM58.2269 283.48V291.798H49.9087V283.48H58.2269ZM66.545 283.48V291.798H58.2269V283.48H66.545ZM74.8631 283.48V291.798H66.545V283.48H74.8631ZM83.1812 283.48V291.798H74.8631V283.48H83.1812ZM91.4994 283.48V291.798H83.1812V283.48H91.4994ZM99.8175 283.48V291.798H91.4994V283.48H99.8175ZM108.136 283.48V291.798H99.8175V283.48H108.136ZM116.454 266.844V275.162H108.136V266.844H116.454ZM116.454 258.526V266.844H108.136V258.526H116.454ZM116.454 250.208V258.526H108.136V250.208H116.454ZM116.454 241.89V250.208H108.136V241.89H116.454ZM116.454 233.571V241.89H108.136V233.571H116.454ZM116.454 225.253V233.571H108.136V225.253H116.454ZM124.772 216.935V225.253H116.454V216.935H124.772ZM124.772 208.617V216.935H116.454V208.617H124.772ZM124.772 200.299V208.617H116.454V200.299H124.772ZM124.772 191.981V200.299H116.454V191.981H124.772ZM124.772 183.663V191.981H116.454V183.663H124.772ZM116.454 183.663V191.981H108.136V183.663H116.454ZM116.454 175.345V183.663H108.136V175.345H116.454ZM116.454 167.026V175.345H108.136V167.026H116.454ZM116.454 158.708V167.026H108.136V158.708H116.454ZM116.454 150.39V158.708H108.136V150.39H116.454ZM124.772 150.39V158.708H116.454V150.39H124.772ZM133.09 150.39V158.708H124.772V150.39H133.09ZM133.09 158.708V167.026H124.772V158.708H133.09ZM133.09 167.026V175.345H124.772V167.026H133.09ZM133.09 175.345V183.663H124.772V175.345H133.09ZM133.09 183.663V191.981H124.772V183.663H133.09ZM133.09 191.981V200.299H124.772V191.981H133.09ZM133.09 200.299V208.617H124.772V200.299H133.09ZM133.09 208.617V216.935H124.772V208.617H133.09ZM133.09 216.935V225.253H124.772V216.935H133.09ZM133.09 225.253V233.571H124.772V225.253H133.09ZM133.09 233.571V241.89H124.772V233.571H133.09ZM133.09 241.89V250.208H124.772V241.89H133.09ZM133.09 250.208V258.526H124.772V250.208H133.09ZM133.09 258.526V266.844H124.772V258.526H133.09ZM133.09 266.844V275.162H124.772V266.844H133.09ZM133.09 275.162V283.48H124.772V275.162H133.09ZM124.772 275.162V283.48H116.454V275.162H124.772ZM124.772 266.844V275.162H116.454V266.844H124.772ZM124.772 258.526V266.844H116.454V258.526H124.772ZM124.772 241.89V250.208H116.454V241.89H124.772ZM124.772 250.208V258.526H116.454V250.208H124.772ZM124.772 225.253V233.571H116.454V225.253H124.772ZM124.772 233.571V241.89H116.454V233.571H124.772ZM116.454 191.981V200.299H108.136V191.981H116.454ZM116.454 216.935V225.253H108.136V216.935H116.454ZM124.772 175.345V183.663H116.454V175.345H124.772ZM124.772 167.026V175.345H116.454V167.026H124.772ZM124.772 158.708V167.026H116.454V158.708H124.772ZM108.136 316.753V325.071H99.8175V316.753H108.136ZM108.136 325.071V333.389H99.8175V325.071H108.136ZM108.136 333.389V341.707H99.8175V333.389H108.136ZM108.136 341.707V350.025H99.8175V341.707H108.136ZM116.454 341.707V350.025H108.136V341.707H116.454ZM124.772 341.707V350.025H116.454V341.707H124.772ZM133.09 341.707V350.025H124.772V341.707H133.09ZM141.408 333.389V341.707H133.09V333.389H141.408ZM141.408 325.071V333.389H133.09V325.071H141.408ZM141.408 341.707V350.025H133.09V341.707H141.408ZM141.408 316.753V325.071H133.09V316.753H141.408ZM141.408 308.435V316.753H133.09V308.435H141.408ZM141.408 300.116V308.435H133.09V300.116H141.408ZM133.09 308.435V316.753H124.772V308.435H133.09ZM133.09 316.753V325.071H124.772V316.753H133.09ZM124.772 316.753V325.071H116.454V316.753H124.772ZM124.772 325.071V333.389H116.454V325.071H124.772ZM124.772 333.389V341.707H116.454V333.389H124.772ZM133.09 333.389V341.707H124.772V333.389H133.09ZM133.09 325.071V333.389H124.772V325.071H133.09ZM116.454 333.389V341.707H108.136V333.389H116.454ZM124.772 308.435V316.753H116.454V308.435H124.772ZM116.454 325.071V333.389H108.136V325.071H116.454ZM116.454 316.753V325.071H108.136V316.753H116.454ZM174.627 308.435V316.753H166.309V308.435H174.627ZM174.627 300.116V308.435H166.309V300.116H174.627ZM174.627 291.798V300.116H166.309V291.798H174.627ZM174.627 283.48V291.798H166.309V283.48H174.627ZM174.627 275.162V283.48H166.309V275.162H174.627ZM174.627 266.844V275.162H166.309V266.844H174.627ZM174.627 258.526V266.844H166.309V258.526H174.627ZM174.627 250.208V258.526H166.309V250.208H174.627ZM174.627 241.89V250.208H166.309V241.89H174.627ZM174.627 233.571V241.89H166.309V233.571H174.627ZM174.627 225.253V233.571H166.309V225.253H174.627ZM182.945 225.253V233.571H174.627V225.253H182.945ZM182.945 233.571V241.89H174.627V233.571H182.945ZM182.945 241.89V250.208H174.627V241.89H182.945ZM182.945 250.208V258.526H174.627V250.208H182.945ZM182.945 258.526V266.844H174.627V258.526H182.945ZM182.945 266.844V275.162H174.627V266.844H182.945ZM182.945 275.162V283.48H174.627V275.162H182.945ZM191.263 283.48V291.798H182.945V283.48H191.263ZM191.263 291.798V300.116H182.945V291.798H191.263ZM191.263 300.116V308.435H182.945V300.116H191.263ZM191.263 308.435V316.753H182.945V308.435H191.263ZM191.263 316.753V325.071H182.945V316.753H191.263ZM191.263 325.071V333.389H182.945V325.071H191.263ZM191.263 333.389V341.707H182.945V333.389H191.263ZM207.899 341.707V350.025H199.581V341.707H207.899ZM207.899 333.389V341.707H199.581V333.389H207.899ZM207.899 325.071V333.389H199.581V325.071H207.899ZM207.899 316.753V325.071H199.581V316.753H207.899ZM207.899 308.435V316.753H199.581V308.435H207.899ZM207.899 300.116V308.435H199.581V300.116H207.899ZM207.899 291.798V300.116H199.581V291.798H207.899ZM207.899 283.48V291.798H199.581V283.48H207.899ZM199.581 283.48V291.798H191.263V283.48H199.581ZM199.581 275.162V283.48H191.263V275.162H199.581ZM199.581 291.798V300.116H191.263V291.798H199.581ZM199.581 300.116V308.435H191.263V300.116H199.581ZM199.581 308.435V316.753H191.263V308.435H199.581ZM199.581 316.753V325.071H191.263V316.753H199.581ZM199.581 325.071V333.389H191.263V325.071H199.581ZM199.581 333.389V341.707H191.263V333.389H199.581ZM182.945 325.071V333.389H174.627V325.071H182.945ZM182.945 316.753V325.071H174.627V316.753H182.945ZM182.945 308.435V316.753H174.627V308.435H182.945ZM182.945 300.116V308.435H174.627V300.116H182.945ZM182.945 291.798V300.116H174.627V291.798H182.945ZM182.945 283.48V291.798H174.627V283.48H182.945ZM174.627 216.935V225.253H166.309V216.935H174.627ZM199.581 216.935V225.253H191.263V216.935H199.581ZM199.581 225.253V233.571H191.263V225.253H199.581ZM199.581 233.571V241.89H191.263V233.571H199.581ZM199.581 241.89V250.208H191.263V241.89H199.581ZM199.581 250.208V258.526H191.263V250.208H199.581ZM207.899 258.526V266.844H199.581V258.526H207.899ZM207.899 266.844V275.162H199.581V266.844H207.899ZM207.899 275.162V283.48H199.581V275.162H207.899ZM207.899 250.208V258.526H199.581V250.208H207.899ZM207.899 241.89V250.208H199.581V241.89H207.899ZM207.899 233.571V241.89H199.581V233.571H207.899ZM207.899 225.253V233.571H199.581V225.253H207.899ZM207.899 216.935V225.253H199.581V216.935H207.899ZM182.945 216.935V225.253H174.627V216.935H182.945ZM191.263 216.935V225.253H182.945V216.935H191.263ZM191.263 225.253V233.571H182.945V225.253H191.263ZM191.263 233.571V241.89H182.945V233.571H191.263ZM191.263 241.89V250.208H182.945V241.89H191.263ZM191.263 250.208V258.526H182.945V250.208H191.263ZM191.263 258.526V266.844H182.945V258.526H191.263ZM191.263 266.844V275.162H182.945V266.844H191.263ZM191.263 275.162V283.48H182.945V275.162H191.263ZM199.581 266.844V275.162H191.263V266.844H199.581ZM199.581 258.526V266.844H191.263V258.526H199.581ZM257.808 341.707V350.025H249.49V341.707H257.808ZM257.808 333.389V341.707H249.49V333.389H257.808ZM257.808 325.071V333.389H249.49V325.071H257.808ZM257.808 316.753V325.071H249.49V316.753H257.808ZM257.808 308.435V316.753H249.49V308.435H257.808ZM257.808 300.116V308.435H249.49V300.116H257.808ZM257.808 291.798V300.116H249.49V291.798H257.808ZM257.808 283.48V291.798H249.49V283.48H257.808ZM257.808 275.162V283.48H249.49V275.162H257.808ZM257.808 266.844V275.162H249.49V266.844H257.808ZM257.808 258.526V266.844H249.49V258.526H257.808ZM257.808 250.208V258.526H249.49V250.208H257.808ZM257.808 241.89V250.208H249.49V241.89H257.808ZM257.808 233.571V241.89H249.49V233.571H257.808ZM257.808 225.253V233.571H249.49V225.253H257.808ZM266.126 225.253V233.571H257.808V225.253H266.126ZM266.126 233.571V241.89H257.808V233.571H266.126ZM266.126 241.89V250.208H257.808V241.89H266.126ZM266.126 250.208V258.526H257.808V250.208H266.126ZM266.126 258.526V266.844H257.808V258.526H266.126ZM266.126 266.844V275.162H257.808V266.844H266.126ZM266.126 275.162V283.48H257.808V275.162H266.126ZM274.444 283.48V291.798H266.126V283.48H274.444ZM274.444 291.798V300.116H266.126V291.798H274.444ZM274.444 300.116V308.435H266.126V300.116H274.444ZM274.444 308.435V316.753H266.126V308.435H274.444ZM274.444 316.753V325.071H266.126V316.753H274.444ZM274.444 325.071V333.389H266.126V325.071H274.444ZM274.444 333.389V341.707H266.126V333.389H274.444ZM291.081 308.435V316.753H282.763V308.435H291.081ZM291.081 300.116V308.435H282.763V300.116H291.081ZM291.081 291.798V300.116H282.763V291.798H291.081ZM291.081 283.48V291.798H282.763V283.48H291.081ZM282.763 283.48V291.798H274.444V283.48H282.763ZM282.763 275.162V283.48H274.444V275.162H282.763ZM282.763 291.798V300.116H274.444V291.798H282.763ZM282.763 300.116V308.435H274.444V300.116H282.763ZM282.763 308.435V316.753H274.444V308.435H282.763ZM282.763 316.753V325.071H274.444V316.753H282.763ZM282.763 325.071V333.389H274.444V325.071H282.763ZM266.126 333.389V341.707H257.808V333.389H266.126ZM266.126 325.071V333.389H257.808V325.071H266.126ZM266.126 316.753V325.071H257.808V316.753H266.126ZM266.126 308.435V316.753H257.808V308.435H266.126ZM266.126 300.116V308.435H257.808V300.116H266.126ZM266.126 291.798V300.116H257.808V291.798H266.126ZM266.126 283.48V291.798H257.808V283.48H266.126ZM257.808 216.935V225.253H249.49V216.935H257.808ZM282.763 216.935V225.253H274.444V216.935H282.763ZM282.763 225.253V233.571H274.444V225.253H282.763ZM282.763 233.571V241.89H274.444V233.571H282.763ZM282.763 241.89V250.208H274.444V241.89H282.763ZM282.763 250.208V258.526H274.444V250.208H282.763ZM291.081 258.526V266.844H282.763V258.526H291.081ZM291.081 266.844V275.162H282.763V266.844H291.081ZM291.081 275.162V283.48H282.763V275.162H291.081ZM291.081 250.208V258.526H282.763V250.208H291.081ZM291.081 241.89V250.208H282.763V241.89H291.081ZM291.081 233.571V241.89H282.763V233.571H291.081ZM291.081 225.253V233.571H282.763V225.253H291.081ZM291.081 216.935V225.253H282.763V216.935H291.081ZM266.126 216.935V225.253H257.808V216.935H266.126ZM274.444 216.935V225.253H266.126V216.935H274.444ZM274.444 225.253V233.571H266.126V225.253H274.444ZM274.444 233.571V241.89H266.126V233.571H274.444ZM274.444 241.89V250.208H266.126V241.89H274.444ZM274.444 250.208V258.526H266.126V250.208H274.444ZM274.444 258.526V266.844H266.126V258.526H274.444ZM274.444 266.844V275.162H266.126V266.844H274.444ZM274.444 275.162V283.48H266.126V275.162H274.444ZM282.763 266.844V275.162H274.444V266.844H282.763ZM282.763 258.526V266.844H274.444V258.526H282.763ZM216.218 341.707V350.025H207.899V341.707H216.218ZM224.536 341.707V350.025H216.218V341.707H224.536ZM232.854 341.707V350.025H224.536V341.707H232.854ZM241.172 341.707V350.025H232.854V341.707H241.172ZM249.49 341.707V350.025H241.172V341.707H249.49ZM249.49 333.389V341.707H241.172V333.389H249.49ZM241.172 333.389V341.707H232.854V333.389H241.172ZM232.854 333.389V341.707H224.536V333.389H232.854ZM224.536 333.389V341.707H216.218V333.389H224.536ZM216.218 333.389V341.707H207.899V333.389H216.218ZM216.218 325.071V333.389H207.899V325.071H216.218ZM224.536 325.071V333.389H216.218V325.071H224.536ZM232.854 325.071V333.389H224.536V325.071H232.854ZM241.172 325.071V333.389H232.854V325.071H241.172ZM249.49 325.071V333.389H241.172V325.071H249.49ZM249.49 316.753V325.071H241.172V316.753H249.49ZM241.172 316.753V325.071H232.854V316.753H241.172ZM232.854 316.753V325.071H224.536V316.753H232.854ZM224.536 316.753V325.071H216.218V316.753H224.536ZM216.218 316.753V325.071H207.899V316.753H216.218ZM216.218 308.435V316.753H207.899V308.435H216.218ZM249.49 308.435V316.753H241.172V308.435H249.49ZM282.763 183.663V175.345H291.081V183.663H282.763ZM282.763 191.981V183.663H291.081V191.981H282.763ZM282.763 200.299V191.981H291.081V200.299H282.763ZM266.126 200.299V191.981H274.444V200.299H266.126ZM266.126 191.981V183.663H274.444V191.981H266.126ZM266.126 183.663V175.345H274.444V183.663H266.126ZM266.126 175.345V167.026H274.444V175.345H266.126ZM266.126 167.026V158.708H274.444V167.026H266.126ZM266.126 158.708V150.39H274.444V158.708H266.126ZM249.49 150.39V142.072H257.808V150.39H249.49ZM249.49 158.708V150.39H257.808V158.708H249.49ZM249.49 167.026V158.708H257.808V167.026H249.49ZM249.49 175.345V167.026H257.808V175.345H249.49ZM249.49 183.663V175.345H257.808V183.663H249.49ZM249.49 191.981V183.663H257.808V191.981H249.49ZM249.49 200.299V191.981H257.808V200.299H249.49ZM257.808 200.299V191.981H266.126V200.299H257.808ZM257.808 191.981V183.663H266.126V191.981H257.808ZM257.808 183.663V175.345H266.126V183.663H257.808ZM257.808 175.345V167.026H266.126V175.345H257.808ZM257.808 167.026V158.708H266.126V167.026H257.808ZM257.808 158.708V150.39H266.126V158.708H257.808ZM274.444 167.026V158.708H282.763V167.026H274.444ZM274.444 175.345V167.026H282.763V175.345H274.444ZM274.444 183.663V175.345H282.763V183.663H274.444ZM274.444 191.981V183.663H282.763V191.981H274.444ZM274.444 200.299V191.981H282.763V200.299H274.444ZM199.581 150.39V142.072H207.899V150.39H199.581ZM199.581 158.708V150.39H207.899V158.708H199.581ZM199.581 167.026V158.708H207.899V167.026H199.581ZM199.581 175.345V167.026H207.899V175.345H199.581ZM199.581 183.663V175.345H207.899V183.663H199.581ZM199.581 191.981V183.663H207.899V191.981H199.581ZM199.581 200.299V191.981H207.899V200.299H199.581ZM182.945 200.299V191.981H191.263V200.299H182.945ZM182.945 191.981V183.663H191.263V191.981H182.945ZM182.945 183.663V175.345H191.263V183.663H182.945ZM182.945 175.345V167.026H191.263V175.345H182.945ZM182.945 167.026V158.708H191.263V167.026H182.945ZM182.945 158.708V150.39H191.263V158.708H182.945ZM166.309 183.663V175.345H174.627V183.663H166.309ZM166.309 191.981V183.663H174.627V191.981H166.309ZM166.309 200.299V191.981H174.627V200.299H166.309ZM174.627 200.299V191.981H182.945V200.299H174.627ZM174.627 191.981V183.663H182.945V191.981H174.627ZM174.627 183.663V175.345H182.945V183.663H174.627ZM174.627 175.345V167.026H182.945V175.345H174.627ZM174.627 167.026V158.708H182.945V167.026H174.627ZM191.263 158.708V150.39H199.581V158.708H191.263ZM191.263 167.026V158.708H199.581V167.026H191.263ZM191.263 175.345V167.026H199.581V175.345H191.263ZM191.263 183.663V175.345H199.581V183.663H191.263ZM191.263 191.981V183.663H199.581V191.981H191.263ZM191.263 200.299V191.981H199.581V200.299H191.263ZM241.172 150.39V142.072H249.49V150.39H241.172ZM232.854 150.39V142.072H241.172V150.39H232.854ZM224.536 150.39V142.072H232.854V150.39H224.536ZM207.899 150.39V142.072H216.218V150.39H207.899ZM207.899 158.708V150.39H216.218V158.708H207.899ZM216.218 158.708V150.39H224.536V158.708H216.218ZM224.536 158.708V150.39H232.854V158.708H224.536ZM232.854 158.708V150.39H241.172V158.708H232.854ZM241.172 158.708V150.39H249.49V158.708H241.172ZM241.172 167.026V158.708H249.49V167.026H241.172ZM232.854 167.026V158.708H241.172V167.026H232.854ZM224.536 167.026V158.708H232.854V167.026H224.536ZM216.218 167.026V158.708H224.536V167.026H216.218ZM207.899 167.026V158.708H216.218V167.026H207.899ZM207.899 175.345V167.026H216.218V175.345H207.899ZM216.218 175.345V167.026H224.536V175.345H216.218ZM224.536 175.345V167.026H232.854V175.345H224.536ZM232.854 175.345V167.026H241.172V175.345H232.854ZM241.172 175.345V167.026H249.49V175.345H241.172ZM241.172 183.663V175.345H249.49V183.663H241.172ZM207.899 183.663V175.345H216.218V183.663H207.899ZM174.627 208.617V216.935H166.309V208.617H174.627ZM182.945 208.617V216.935H174.627V208.617H182.945ZM174.627 200.299V208.617H166.309V200.299H174.627ZM199.581 200.299V208.617H191.263V200.299H199.581ZM199.581 208.617V216.935H191.263V208.617H199.581ZM207.899 208.617V216.935H199.581V208.617H207.899ZM207.899 200.299V208.617H199.581V200.299H207.899ZM182.945 200.299V208.617H174.627V200.299H182.945ZM191.263 200.299V208.617H182.945V200.299H191.263ZM191.263 208.617V216.935H182.945V208.617H191.263ZM257.808 208.617V216.935H249.49V208.617H257.808ZM266.126 208.617V216.935H257.808V208.617H266.126ZM257.808 200.299V208.617H249.49V200.299H257.808ZM282.763 200.299V208.617H274.444V200.299H282.763ZM282.763 208.617V216.935H274.444V208.617H282.763ZM291.081 208.617V216.935H282.763V208.617H291.081ZM291.081 200.299V208.617H282.763V200.299H291.081ZM266.126 200.299V208.617H257.808V200.299H266.126ZM274.444 200.299V208.617H266.126V200.299H274.444ZM274.444 208.617V216.935H266.126V208.617H274.444ZM224.536 308.435V316.753H216.218V308.435H224.536ZM232.854 308.435V316.753H224.536V308.435H232.854ZM241.172 308.435V316.753H232.854V308.435H241.172ZM249.49 300.116V308.435H241.172V300.116H249.49ZM216.218 300.116V308.435H207.899V300.116H216.218ZM224.536 175.345V183.663H216.218V175.345H224.536ZM232.854 175.345V183.663H224.536V175.345H232.854ZM241.172 175.345V183.663H232.854V175.345H241.172ZM249.49 183.663V191.981H241.172V183.663H249.49ZM216.218 183.663V191.981H207.899V183.663H216.218ZM224.536 142.072V150.39H216.218V142.072H224.536ZM407.481 150.39V158.708H399.163V150.39H407.481ZM407.481 158.708V167.026H399.163V158.708H407.481ZM407.481 167.026V175.345H399.163V167.026H407.481ZM407.481 175.345V183.663H399.163V175.345H407.481ZM407.481 183.663V191.981H399.163V183.663H407.481ZM407.481 191.981V200.299H399.163V191.981H407.481ZM399.163 191.981V200.299H390.845V191.981H399.163ZM399.163 183.663V191.981H390.845V183.663H399.163ZM399.163 175.345V183.663H390.845V175.345H399.163ZM399.163 167.026V175.345H390.845V167.026H399.163ZM399.163 158.708V167.026H390.845V158.708H399.163ZM399.163 150.39V158.708H390.845V150.39H399.163ZM390.845 167.026V175.345H382.526V167.026H390.845ZM390.845 175.345V183.663H382.526V175.345H390.845ZM390.845 158.708V167.026H382.526V158.708H390.845ZM382.526 167.026V175.345H374.208V167.026H382.526ZM382.526 175.345V183.663H374.208V175.345H382.526ZM374.208 175.345V183.663H365.89V175.345H374.208ZM374.208 183.663V191.981H365.89V183.663H374.208ZM365.89 183.663V191.981H357.572V183.663H365.89ZM365.89 191.981V200.299H357.572V191.981H365.89ZM365.89 200.299V208.617H357.572V200.299H365.89ZM357.572 200.299V208.617H349.254V200.299H357.572ZM357.572 208.617V216.935H349.254V208.617H357.572ZM349.254 208.617V216.935H340.936V208.617H349.254ZM349.254 216.935V225.253H340.936V216.935H349.254ZM340.936 216.935V225.253H332.618V216.935H340.936ZM340.936 225.253V233.571H332.618V225.253H340.936ZM332.618 225.253V233.571H324.3V225.253H332.618ZM332.618 233.571V241.89H324.3V233.571H332.618ZM324.3 233.571V241.89H315.981V233.571H324.3ZM324.3 225.253V233.571H315.981V225.253H324.3ZM332.618 216.935V225.253H324.3V216.935H332.618ZM340.936 208.617V216.935H332.618V208.617H340.936ZM349.254 200.299V208.617H340.936V200.299H349.254ZM357.572 191.981V200.299H349.254V191.981H357.572ZM390.845 191.981V200.299H382.526V191.981H390.845ZM390.845 200.299V208.617H382.526V200.299H390.845ZM382.526 200.299V208.617H374.208V200.299H382.526ZM382.526 208.617V216.935H374.208V208.617H382.526ZM374.208 208.617V216.935H365.89V208.617H374.208ZM374.208 216.935V225.253H365.89V216.935H374.208ZM365.89 225.253V233.571H357.572V225.253H365.89ZM357.572 233.571V241.89H349.254V233.571H357.572ZM357.572 241.89V250.208H349.254V241.89H357.572ZM349.254 241.89V250.208H340.936V241.89H349.254ZM390.845 183.663V191.981H382.526V183.663H390.845ZM382.526 183.663V191.981H374.208V183.663H382.526ZM374.208 191.981V200.299H365.89V191.981H374.208ZM374.208 200.299V208.617H365.89V200.299H374.208ZM382.526 191.981V200.299H374.208V191.981H382.526ZM365.89 208.617V216.935H357.572V208.617H365.89ZM357.572 216.935V225.253H349.254V216.935H357.572ZM357.572 225.253V233.571H349.254V225.253H357.572ZM349.254 225.253V233.571H340.936V225.253H349.254ZM349.254 233.571V241.89H340.936V233.571H349.254ZM340.936 233.571V241.89H332.618V233.571H340.936ZM340.936 241.89V250.208H332.618V241.89H340.936ZM365.89 216.935V225.253H357.572V216.935H365.89ZM357.572 250.208V258.526H349.254V250.208H357.572ZM357.572 258.526V266.844H349.254V258.526H357.572ZM357.572 266.844V275.162H349.254V266.844H357.572ZM365.89 266.844V275.162H357.572V266.844H365.89ZM374.208 266.844V275.162H365.89V266.844H374.208ZM382.526 266.844V275.162H374.208V266.844H382.526ZM390.845 266.844V275.162H382.526V266.844H390.845ZM399.163 266.844V275.162H390.845V266.844H399.163ZM407.481 266.844V275.162H399.163V266.844H407.481ZM407.481 258.526V266.844H399.163V258.526H407.481ZM407.481 250.208V258.526H399.163V250.208H407.481ZM407.481 241.89V250.208H399.163V241.89H407.481ZM407.481 233.571V241.89H399.163V233.571H407.481ZM407.481 225.253V233.571H399.163V225.253H407.481ZM407.481 216.935V225.253H399.163V216.935H407.481ZM407.481 208.617V216.935H399.163V208.617H407.481ZM415.799 208.617V216.935H407.481V208.617H415.799ZM415.799 200.299V208.617H407.481V200.299H415.799ZM407.481 200.299V208.617H399.163V200.299H407.481ZM415.799 142.072V150.39H407.481V142.072H415.799ZM424.117 142.072V150.39H415.799V142.072H424.117ZM407.481 142.072V150.39H399.163V142.072H407.481ZM432.435 142.072V150.39H424.117V142.072H432.435ZM440.753 142.072V150.39H432.435V142.072H440.753ZM440.753 150.39V158.708H432.435V150.39H440.753ZM440.753 158.708V167.026H432.435V158.708H440.753ZM440.753 167.026V175.345H432.435V167.026H440.753ZM440.753 175.345V183.663H432.435V175.345H440.753ZM440.753 183.663V191.981H432.435V183.663H440.753ZM440.753 191.981V200.299H432.435V191.981H440.753ZM440.753 200.299V208.617H432.435V200.299H440.753ZM440.753 208.617V216.935H432.435V208.617H440.753ZM440.753 216.935V225.253H432.435V216.935H440.753ZM440.753 225.253V233.571H432.435V225.253H440.753ZM440.753 233.571V241.89H432.435V233.571H440.753ZM440.753 241.89V250.208H432.435V241.89H440.753ZM440.753 250.208V258.526H432.435V250.208H440.753ZM440.753 258.526V266.844H432.435V258.526H440.753ZM440.753 266.844V275.162H432.435V266.844H440.753ZM440.753 275.162V283.48H432.435V275.162H440.753ZM440.753 283.48V291.798H432.435V283.48H440.753ZM440.753 291.798V300.116H432.435V291.798H440.753ZM432.435 291.798V300.116H424.117V291.798H432.435ZM432.435 300.116V308.435H424.117V300.116H432.435ZM424.117 300.116V308.435H415.799V300.116H424.117ZM415.799 308.435V316.753H407.481V308.435H415.799ZM407.481 308.435V316.753H399.163V308.435H407.481ZM407.481 300.116V308.435H399.163V300.116H407.481ZM399.163 300.116V308.435H390.845V300.116H399.163ZM390.845 300.116V308.435H382.526V300.116H390.845ZM382.526 300.116V308.435H374.208V300.116H382.526ZM374.208 300.116V308.435H365.89V300.116H374.208ZM365.89 300.116V308.435H357.572V300.116H365.89ZM357.572 300.116V308.435H349.254V300.116H357.572ZM349.254 300.116V308.435H340.936V300.116H349.254ZM340.936 300.116V308.435H332.618V300.116H340.936ZM332.618 300.116V308.435H324.3V300.116H332.618ZM324.3 300.116V308.435H315.981V300.116H324.3ZM324.3 291.798V300.116H315.981V291.798H324.3ZM324.3 283.48V291.798H315.981V283.48H324.3ZM324.3 275.162V283.48H315.981V275.162H324.3ZM324.3 266.844V275.162H315.981V266.844H324.3ZM324.3 258.526V266.844H315.981V258.526H324.3ZM332.618 258.526V266.844H324.3V258.526H332.618ZM332.618 250.208V258.526H324.3V250.208H332.618ZM332.618 241.89V250.208H324.3V241.89H332.618ZM324.3 241.89V250.208H315.981V241.89H324.3ZM324.3 250.208V258.526H315.981V250.208H324.3ZM340.936 250.208V258.526H332.618V250.208H340.936ZM349.254 250.208V258.526H340.936V250.208H349.254ZM349.254 258.526V266.844H340.936V258.526H349.254ZM349.254 266.844V275.162H340.936V266.844H349.254ZM349.254 275.162V283.48H340.936V275.162H349.254ZM340.936 275.162V283.48H332.618V275.162H340.936ZM340.936 266.844V275.162H332.618V266.844H340.936ZM340.936 258.526V266.844H332.618V258.526H340.936ZM332.618 266.844V275.162H324.3V266.844H332.618ZM332.618 275.162V283.48H324.3V275.162H332.618ZM332.618 283.48V291.798H324.3V283.48H332.618ZM332.618 291.798V300.116H324.3V291.798H332.618ZM340.936 291.798V300.116H332.618V291.798H340.936ZM349.254 291.798V300.116H340.936V291.798H349.254ZM357.572 291.798V300.116H349.254V291.798H357.572ZM365.89 291.798V300.116H357.572V291.798H365.89ZM374.208 291.798V300.116H365.89V291.798H374.208ZM382.526 291.798V300.116H374.208V291.798H382.526ZM390.845 291.798V300.116H382.526V291.798H390.845ZM399.163 291.798V300.116H390.845V291.798H399.163ZM407.481 291.798V300.116H399.163V291.798H407.481ZM415.799 291.798V300.116H407.481V291.798H415.799ZM424.117 291.798V300.116H415.799V291.798H424.117ZM415.799 300.116V308.435H407.481V300.116H415.799ZM432.435 283.48V291.798H424.117V283.48H432.435ZM424.117 283.48V291.798H415.799V283.48H424.117ZM415.799 283.48V291.798H407.481V283.48H415.799ZM415.799 275.162V283.48H407.481V275.162H415.799ZM407.481 275.162V283.48H399.163V275.162H407.481ZM399.163 275.162V283.48H390.845V275.162H399.163ZM390.845 275.162V283.48H382.526V275.162H390.845ZM382.526 275.162V283.48H374.208V275.162H382.526ZM374.208 275.162V283.48H365.89V275.162H374.208ZM365.89 275.162V283.48H357.572V275.162H365.89ZM357.572 275.162V283.48H349.254V275.162H357.572ZM340.936 283.48V291.798H332.618V283.48H340.936ZM349.254 283.48V291.798H340.936V283.48H349.254ZM357.572 283.48V291.798H349.254V283.48H357.572ZM365.89 283.48V291.798H357.572V283.48H365.89ZM374.208 283.48V291.798H365.89V283.48H374.208ZM382.526 283.48V291.798H374.208V283.48H382.526ZM390.845 283.48V291.798H382.526V283.48H390.845ZM399.163 283.48V291.798H390.845V283.48H399.163ZM407.481 283.48V291.798H399.163V283.48H407.481ZM415.799 266.844V275.162H407.481V266.844H415.799ZM415.799 258.526V266.844H407.481V258.526H415.799ZM415.799 250.208V258.526H407.481V250.208H415.799ZM415.799 241.89V250.208H407.481V241.89H415.799ZM415.799 233.571V241.89H407.481V233.571H415.799ZM415.799 225.253V233.571H407.481V225.253H415.799ZM424.117 216.935V225.253H415.799V216.935H424.117ZM424.117 208.617V216.935H415.799V208.617H424.117ZM424.117 200.299V208.617H415.799V200.299H424.117ZM424.117 191.981V200.299H415.799V191.981H424.117ZM424.117 183.663V191.981H415.799V183.663H424.117ZM415.799 183.663V191.981H407.481V183.663H415.799ZM415.799 175.345V183.663H407.481V175.345H415.799ZM415.799 167.026V175.345H407.481V167.026H415.799ZM415.799 158.708V167.026H407.481V158.708H415.799ZM415.799 150.39V158.708H407.481V150.39H415.799ZM424.117 150.39V158.708H415.799V150.39H424.117ZM432.435 150.39V158.708H424.117V150.39H432.435ZM432.435 158.708V167.026H424.117V158.708H432.435ZM432.435 167.026V175.345H424.117V167.026H432.435ZM432.435 175.345V183.663H424.117V175.345H432.435ZM432.435 183.663V191.981H424.117V183.663H432.435ZM432.435 191.981V200.299H424.117V191.981H432.435ZM432.435 200.299V208.617H424.117V200.299H432.435ZM432.435 208.617V216.935H424.117V208.617H432.435ZM432.435 216.935V225.253H424.117V216.935H432.435ZM432.435 225.253V233.571H424.117V225.253H432.435ZM432.435 233.571V241.89H424.117V233.571H432.435ZM432.435 241.89V250.208H424.117V241.89H432.435ZM432.435 250.208V258.526H424.117V250.208H432.435ZM432.435 258.526V266.844H424.117V258.526H432.435ZM432.435 266.844V275.162H424.117V266.844H432.435ZM432.435 275.162V283.48H424.117V275.162H432.435ZM424.117 275.162V283.48H415.799V275.162H424.117ZM424.117 266.844V275.162H415.799V266.844H424.117ZM424.117 258.526V266.844H415.799V258.526H424.117ZM424.117 241.89V250.208H415.799V241.89H424.117ZM424.117 250.208V258.526H415.799V250.208H424.117ZM424.117 225.253V233.571H415.799V225.253H424.117ZM424.117 233.571V241.89H415.799V233.571H424.117ZM415.799 191.981V200.299H407.481V191.981H415.799ZM415.799 216.935V225.253H407.481V216.935H415.799ZM424.117 175.345V183.663H415.799V175.345H424.117ZM424.117 167.026V175.345H415.799V167.026H424.117ZM424.117 158.708V167.026H415.799V158.708H424.117ZM407.481 316.753V325.071H399.163V316.753H407.481ZM407.481 325.071V333.389H399.163V325.071H407.481ZM407.481 333.389V341.707H399.163V333.389H407.481ZM407.481 341.707V350.025H399.163V341.707H407.481ZM415.799 341.707V350.025H407.481V341.707H415.799ZM424.117 341.707V350.025H415.799V341.707H424.117ZM432.435 341.707V350.025H424.117V341.707H432.435ZM440.753 333.389V341.707H432.435V333.389H440.753ZM440.753 325.071V333.389H432.435V325.071H440.753ZM440.753 341.707V350.025H432.435V341.707H440.753ZM440.753 316.753V325.071H432.435V316.753H440.753ZM440.753 308.435V316.753H432.435V308.435H440.753ZM440.753 300.116V308.435H432.435V300.116H440.753ZM432.435 308.435V316.753H424.117V308.435H432.435ZM432.435 316.753V325.071H424.117V316.753H432.435ZM424.117 316.753V325.071H415.799V316.753H424.117ZM424.117 325.071V333.389H415.799V325.071H424.117ZM424.117 333.389V341.707H415.799V333.389H424.117ZM432.435 333.389V341.707H424.117V333.389H432.435ZM432.435 325.071V333.389H424.117V325.071H432.435ZM415.799 333.389V341.707H407.481V333.389H415.799ZM424.117 308.435V316.753H415.799V308.435H424.117ZM415.799 325.071V333.389H407.481V325.071H415.799ZM415.799 316.753V325.071H407.481V316.753H415.799Z" fill="url(#paint1_linear_443_25)"/>
<defs>
<linearGradient id="paint0_linear_443_25" x1="99.0933" y1="81.2" x2="204.633" y2="339.312" gradientUnits="userSpaceOnUse">
<stop stop-color="#E94BAA"/>
<stop offset="0.0001" stop-color="#007AFF"/>
<stop offset="0.575137" stop-color="#F96171"/>
<stop offset="0.811" stop-color="#8D39FF"/>
</linearGradient>
<linearGradient id="paint1_linear_443_25" x1="111.5" y1="78.8293" x2="299.191" y2="309.613" gradientUnits="userSpaceOnUse">
<stop stop-color="white"/>
<stop offset="1" stop-color="#E2E2E2"/>
</linearGradient>
</defs>
</svg>
