<?xml version="1.0" encoding="UTF-8"?>
<svg xmlns="http://www.w3.org/2000/svg" id="Isolation_Mode" data-name="Isolation Mode" viewBox="0 0 24 24" width="512" height="512">
  <!-- 그라데이션 정의 -->
  <defs>
    <linearGradient id="grad1" x1="0%" y1="0%" x2="100%" y2="100%">
      <stop offset="0%" style="stop-color:#F05E68;stop-opacity:1" />
      <stop offset="100%" style="stop-color:#E549AB;stop-opacity:1" />
    </linearGradient>
  </defs>
  
  <!-- 그라데이션을 사용한 경로 -->
  <path d="M12.033,19.011a3.489,3.489,0,0,0,2.475-1.024l3.919-3.919-2.121-2.121-2.782,2.782L13.5,0l-3,0,.024,14.709L7.76,11.947,5.639,14.068l3.919,3.919A3.487,3.487,0,0,0,12.033,19.011Z" fill="url(#grad1)"/>
  <path d="M21,16v5H3V16H0v5a3,3,0,0,0,3,3H21a3,3,0,0,0,3-3V16Z" fill="url(#grad1)"/>
</svg>
