<svg width="20" height="24" viewBox="0 0 20 24" fill="none" xmlns="http://www.w3.org/2000/svg">
<path fill-rule="evenodd" clip-rule="evenodd" d="M8.84374 0.350557L1.22679 7.96747C0.759373 8.43488 0.759371 9.19271 1.22678 9.66012C1.69419 10.1275 2.45202 10.1275 2.91943 9.66013L8.49317 4.08642L8.49314 16.5025L10.8869 16.5025L10.8869 4.08642L16.4606 9.66016C16.9281 10.1276 17.6859 10.1276 18.1533 9.66017C18.6207 9.19275 18.6207 8.43493 18.1533 7.96751L10.5364 0.350562C10.069 -0.116852 9.31115 -0.116854 8.84374 0.350557ZM19.1488 23.8746V23.8913H0.189453V23.8746V20.7247V15.9748H3.35612L3.35612 20.7247H16.0229L16.0229 15.9748H19.1895V23.8746H19.1488Z" fill="white"/>
</svg>
