<svg width="27" height="29" viewBox="0 0 27 29" fill="none" xmlns="http://www.w3.org/2000/svg">
<path d="M15.0104 2C15.0104 1.44196 14.558 0.989579 14 0.989579C13.442 0.989579 12.9896 1.44196 12.9896 2L15.0104 2ZM13.2855 22.7145C13.6801 23.1091 14.3199 23.1091 14.7145 22.7145L21.1448 16.2842C21.5393 15.8896 21.5393 15.2498 21.1448 14.8552C20.7502 14.4607 20.1104 14.4607 19.7158 14.8552L14 20.571L8.2842 14.8552C7.8896 14.4607 7.24984 14.4607 6.85525 14.8552C6.46065 15.2498 6.46065 15.8896 6.85525 16.2842L13.2855 22.7145ZM12.9896 2L12.9896 22L15.0104 22L15.0104 2L12.9896 2Z" fill="white"/>
<line x1="1.74333" y1="27.8472" x2="25.9934" y2="27.8472" stroke="white" stroke-width="2.02084" stroke-linecap="round"/>
</svg>
