<svg width="32" height="34" viewBox="0 0 32 34" fill="none" xmlns="http://www.w3.org/2000/svg">
<path d="M17.2092 2C17.2092 1.34151 16.6753 0.807692 16.0168 0.807692C15.3584 0.807692 14.8245 1.34151 14.8245 2L17.2092 2ZM15.1738 26.4433C15.6394 26.9089 16.3943 26.9089 16.8599 26.4433L24.4477 18.8555C24.9134 18.3899 24.9134 17.635 24.4477 17.1693C23.9821 16.7037 23.2272 16.7037 22.7616 17.1693L16.0168 23.914L9.27214 17.1693C8.80651 16.7037 8.05158 16.7037 7.58596 17.1693C7.12033 17.635 7.12033 18.3899 7.58596 18.8555L15.1738 26.4433ZM14.8245 2L14.8245 25.6002L17.2092 25.6002L17.2092 2L14.8245 2Z" fill="white"/>
<line x1="1.19231" y1="32.5001" x2="30.5239" y2="32.5001" stroke="white" stroke-width="2.38462" stroke-linecap="round"/>
</svg>
