<svg width="30" height="29" viewBox="0 0 32 31" fill="none" xmlns="http://www.w3.org/2000/svg">
<path d="M21.3203 6.41487C21.3203 9.37167 18.8247 11.8297 15.6694 11.8297C12.5142 11.8297 10.0186 9.37167 10.0186 6.41487C10.0186 3.45806 12.5142 1 15.6694 1C18.8247 1 21.3203 3.45806 21.3203 6.41487Z" stroke="white" stroke-width="2"/>
<mask id="path-2-inside-1_21_2938" fill="white">
<path fill-rule="evenodd" clip-rule="evenodd" d="M31.1434 30.0888H0.0367826C0.643608 22.3152 7.37523 16.1899 15.5901 16.1899C23.805 16.1899 30.5366 22.3152 31.1434 30.0888Z"/>
</mask>
<path d="M31.1434 30.0888V32.0888H33.3056L33.1373 29.9331L31.1434 30.0888ZM0.0367826 30.0888L-1.95715 29.9331L-2.12543 32.0888H0.0367826V30.0888ZM31.1434 28.0888H0.0367826V32.0888H31.1434V28.0888ZM2.03072 30.2444C2.55223 23.5637 8.36659 18.1899 15.5901 18.1899V14.1899C6.38387 14.1899 -1.26501 21.0666 -1.95715 29.9331L2.03072 30.2444ZM15.5901 18.1899C22.8136 18.1899 28.628 23.5637 29.1495 30.2444L33.1373 29.9331C32.4452 21.0666 24.7963 14.1899 15.5901 14.1899V18.1899Z" fill="white" mask="url(#path-2-inside-1_21_2938)"/>
</svg>
