<svg width="117" height="31" viewBox="0 0 117 31" fill="none" xmlns="http://www.w3.org/2000/svg">
<path fill-rule="evenodd" clip-rule="evenodd" d="M1.33621 10.2634L11.1481 0.451575C11.7502 -0.150527 12.7264 -0.150525 13.3285 0.451581L23.1403 10.2635C23.7424 10.8656 23.7424 11.8418 23.1403 12.4439C22.5382 13.046 21.562 13.046 20.9599 12.4439L13.7801 5.26398L13.78 21.2579L10.6965 21.2579L10.6965 5.26397L3.51661 12.4438C2.91451 13.0459 1.93831 13.0459 1.3362 12.4438C0.734101 11.8417 0.734104 10.8655 1.33621 10.2634ZM24.4228 30.776V30.7542H24.475L24.475 20.578H20.3958V26.6968H4.07918L4.07918 20.578H0V26.6968V30.7542V30.776H24.4228ZM50.2555 11.6129C49.518 14.699 46.6354 16.7756 42.9854 16.7756C38.7085 16.7756 35.5009 13.9652 35.5009 10.0244C35.5009 6.11415 38.7085 3.27312 42.9854 3.27312C46.5952 3.27312 49.4544 5.32634 50.2304 8.3442H54.7771V2.11227H58.8401V17.3255H54.7771V11.6129H50.2555ZM39.3806 10.0244C39.3806 7.91652 40.9081 6.66402 42.9854 6.66402C45.0627 6.66402 46.5596 7.91652 46.5596 10.0244C46.5596 12.1322 45.0627 13.4153 42.9854 13.4153C40.9081 13.4153 39.3806 12.1322 39.3806 10.0244ZM44.0851 18.5475H40.0527V30.0948H58.8401V18.5475H54.8077V21.2357H44.0851V18.5475ZM44.0851 26.8567V24.3517H54.8077V26.8567H44.0851ZM74.0204 23.9851H63.2978V27.2844H88.8976V23.9851H78.0834V19.7694H86.6676V16.5007H70.2629V13.3542H86.026V3.94519H66.1694V7.1528H81.9936V10.1771H66.2305V16.5007V18.1198V19.7694H74.0204V23.9851ZM114.251 15.1566H98.3959V7.73322H114.037V4.43397H94.3634V15.1566V16.5007V18.3947H114.251V15.1566ZM117 23.6796H91.4002V27.0094H117V23.6796Z" fill="url(#paint0_linear_82_354)"/>
<defs>
<linearGradient id="paint0_linear_82_354" x1="-9.33348" y1="9.98587" x2="113.71" y2="26.5331" gradientUnits="userSpaceOnUse">
<stop stop-color="#1D77EF"/>
<stop offset="0.4" stop-color="#F55F76"/>
<stop offset="0.72" stop-color="#CA4FAE"/>
<stop offset="0.98" stop-color="#9634FF"/>
</linearGradient>
</defs>
</svg>
