<svg width="265" height="298" viewBox="0 0 265 298" fill="none" xmlns="http://www.w3.org/2000/svg">
<path fill-rule="evenodd" clip-rule="evenodd" d="M11.1734 3C3.76677 12.1445 -5.31155 41.1091 17.6284 83.8111C30.4279 107.637 36.6237 121.001 40.8969 130.218L40.897 130.218L40.8971 130.218C45.1829 139.462 47.5346 144.535 52.6751 151.807C44.2284 163.304 30.524 183.169 30.0676 188.828C29.4637 196.318 73.1738 190.877 88.6802 182.343C108.256 194.943 131.649 207.878 145.859 215.269C152.189 216.882 166.217 222.295 171.678 231.034C178.506 241.957 180.616 248.661 176.147 255.612C174.206 258.633 165.773 253.685 155.664 247.755C142.508 240.037 126.514 230.654 118.301 235.006C106.682 241.163 126.37 259.667 137.666 268.15L122.273 294.094C131.5 296.576 155.193 296.328 176.147 275.474L184.588 268.15C197.333 261.446 224.485 243.1 231.138 223.337C236.759 206.644 234.862 183.047 232.466 168.739C249.001 163.881 263.008 157.924 261.943 152.209C260.595 144.974 240.842 136.885 222.834 131.165C220.395 123.503 217.415 116.032 213.749 108.959C232.489 99.2898 265.785 77.8403 253.502 66.9328C241.267 56.0676 197.795 62.1592 176.7 66.7343C164.491 57.0364 150.983 48.887 137.666 45.5779C124.898 42.4054 114.036 40.2819 104.215 38.362C82.5243 34.1217 65.9104 30.8739 45.062 19.5098C20.831 6.30196 12.3734 3 11.1734 3Z" fill="#D9D9D9"/>
<path fill-rule="evenodd" clip-rule="evenodd" d="M11.1734 3C3.76677 12.1445 -5.31155 41.1091 17.6284 83.8111C30.4279 107.637 36.6237 121.001 40.8969 130.218L40.897 130.218L40.8971 130.218C45.1829 139.462 47.5346 144.535 52.6751 151.807C44.2284 163.304 30.524 183.169 30.0676 188.828C29.4637 196.318 73.1738 190.877 88.6802 182.343C108.256 194.943 131.649 207.878 145.859 215.269C152.189 216.882 166.217 222.295 171.678 231.034C178.506 241.957 180.616 248.661 176.147 255.612C174.206 258.633 165.773 253.685 155.664 247.755C142.508 240.037 126.514 230.654 118.301 235.006C106.682 241.163 126.37 259.667 137.666 268.15L122.273 294.094C131.5 296.576 155.193 296.328 176.147 275.474L184.588 268.15C197.333 261.446 224.485 243.1 231.138 223.337C236.759 206.644 234.862 183.047 232.466 168.739C249.001 163.881 263.008 157.924 261.943 152.209C260.595 144.974 240.842 136.885 222.834 131.165C220.395 123.503 217.415 116.032 213.749 108.959C232.489 99.2898 265.785 77.8403 253.502 66.9328C241.267 56.0676 197.795 62.1592 176.7 66.7343C164.491 57.0364 150.983 48.887 137.666 45.5779C124.898 42.4054 114.036 40.2819 104.215 38.362C82.5243 34.1217 65.9104 30.8739 45.062 19.5098C20.831 6.30196 12.3734 3 11.1734 3Z" fill="url(#paint0_linear_104_217)"/>
<path d="M17.6284 83.8111L15.3732 85.0226V85.0226L17.6284 83.8111ZM11.1734 3V0.44L9.95252 0.44L9.18409 1.38873L11.1734 3ZM40.8969 130.218L38.5743 131.295L38.5749 131.296L40.8969 130.218ZM40.897 130.218L43.2601 129.233L43.2405 129.186L43.219 129.14L40.897 130.218ZM40.8971 130.218L38.534 131.203L38.5534 131.249L38.5745 131.295L40.8971 130.218ZM52.6751 151.807L54.7382 153.323L55.8305 151.836L54.7656 150.329L52.6751 151.807ZM30.0676 188.828L32.6194 189.034L30.0676 188.828ZM88.6802 182.343L90.0657 180.191L88.7827 179.365L87.4459 180.1L88.6802 182.343ZM145.859 215.269L144.677 217.54L144.94 217.676L145.226 217.749L145.859 215.269ZM171.678 231.034L169.508 232.391L171.678 231.034ZM176.147 255.612L173.994 254.228H173.994L176.147 255.612ZM155.664 247.755L154.369 249.963L155.664 247.755ZM118.301 235.006L119.5 237.268L118.301 235.006ZM137.666 268.15L139.867 269.456L141.039 267.481L139.203 266.103L137.666 268.15ZM122.273 294.094L120.071 292.787L118.35 295.689L121.608 296.566L122.273 294.094ZM176.147 275.474L174.469 273.54L174.403 273.597L174.341 273.659L176.147 275.474ZM184.588 268.15L183.397 265.884L183.134 266.022L182.911 266.216L184.588 268.15ZM231.138 223.337L228.712 222.521L231.138 223.337ZM232.466 168.739L231.745 166.283L229.567 166.923L229.942 169.162L232.466 168.739ZM261.943 152.209L259.426 152.678V152.678L261.943 152.209ZM222.834 131.165L220.395 131.942L220.797 133.204L222.059 133.605L222.834 131.165ZM213.749 108.959L212.575 106.684L210.296 107.86L211.476 110.137L213.749 108.959ZM253.502 66.9328L255.202 65.0186V65.0186L253.502 66.9328ZM176.7 66.7343L175.108 68.7388L176.057 69.4932L177.243 69.2361L176.7 66.7343ZM137.666 45.5779L138.283 43.0934L137.666 45.5779ZM104.215 38.362L104.706 35.8495L104.215 38.362ZM45.062 19.5098L46.2872 17.262L45.062 19.5098ZM19.8836 82.5996C-2.71113 40.5402 6.57623 12.7432 13.1627 4.61127L9.18409 1.38873C0.957309 11.5458 -7.91197 41.6779 15.3732 85.0226L19.8836 82.5996ZM43.2194 129.141C38.9339 119.897 32.715 106.485 19.8836 82.5996L15.3732 85.0226C28.1408 108.789 34.3136 122.104 38.5743 131.295L43.2194 129.141ZM43.219 129.14L43.2188 129.14L38.5749 131.296L38.5751 131.296L43.219 129.14ZM43.2602 129.234L43.2601 129.233L38.5339 131.203L38.534 131.203L43.2602 129.234ZM54.7656 150.329C49.7731 143.267 47.5053 138.385 43.2196 129.141L38.5745 131.295C42.8605 140.539 45.2961 145.803 50.5847 153.285L54.7656 150.329ZM32.6194 189.034C32.6459 188.705 32.8004 188.054 33.2064 187.02C33.5963 186.028 34.158 184.83 34.8743 183.458C36.3061 180.714 38.2815 177.411 40.5329 173.884C45.0309 166.838 50.5334 159.046 54.7382 153.323L50.612 150.291C46.3701 156.065 40.797 163.955 36.2171 171.13C33.9295 174.713 31.8653 178.157 30.3352 181.089C29.5706 182.554 28.9208 183.927 28.4409 185.148C27.977 186.329 27.6034 187.537 27.5159 188.623L32.6194 189.034ZM87.4459 180.1C80.1392 184.122 65.7395 187.571 53.0362 189.052C46.7183 189.788 41.0309 190.011 37.0359 189.626C35.0037 189.431 33.6357 189.097 32.8697 188.735C32.0791 188.362 32.6719 188.383 32.6194 189.034L27.5159 188.623C27.3124 191.146 29.139 192.636 30.6838 193.365C32.2532 194.106 34.322 194.509 36.5451 194.723C41.0604 195.158 47.1565 194.892 53.6289 194.137C66.5063 192.636 81.7148 189.099 89.9144 184.586L87.4459 180.1ZM147.04 212.998C132.873 205.629 109.553 192.734 90.0657 180.191L87.2946 184.496C106.958 197.152 130.426 210.127 144.677 217.54L147.04 212.998ZM173.849 229.677C170.765 224.741 165.422 220.943 160.296 218.219C155.118 215.467 149.835 213.64 146.491 212.788L145.226 217.749C148.213 218.511 153.109 220.197 157.893 222.74C162.728 225.31 167.13 228.587 169.508 232.391L173.849 229.677ZM178.301 256.997C180.902 252.949 181.614 248.848 180.654 244.286C179.733 239.905 177.285 235.174 173.849 229.677L169.508 232.391C172.899 237.817 174.92 241.9 175.644 245.339C176.329 248.597 175.861 251.323 173.994 254.228L178.301 256.997ZM154.369 249.963C159.372 252.898 164.153 255.707 167.932 257.381C169.801 258.209 171.648 258.862 173.275 259.038C174.884 259.211 177.038 258.961 178.301 256.997L173.994 254.228C174.286 253.774 174.657 254.037 173.824 253.947C173.007 253.859 171.75 253.472 170.005 252.699C166.555 251.172 162.065 248.542 156.96 245.547L154.369 249.963ZM119.5 237.268C120.906 236.523 122.844 236.265 125.409 236.613C127.964 236.96 130.916 237.878 134.148 239.219C140.623 241.905 147.751 246.081 154.369 249.963L156.96 245.547C150.421 241.711 142.974 237.337 136.11 234.489C132.672 233.064 129.264 231.969 126.098 231.54C122.944 231.112 119.803 231.313 117.102 232.744L119.5 237.268ZM139.203 266.103C133.638 261.924 126.106 255.344 121.432 249.162C119.061 246.026 117.665 243.3 117.371 241.229C117.232 240.252 117.355 239.536 117.627 238.988C117.896 238.446 118.423 237.838 119.5 237.268L117.102 232.744C115.274 233.713 113.875 235.03 113.04 236.712C112.209 238.387 112.052 240.193 112.302 241.949C112.784 245.345 114.838 248.93 117.348 252.25C122.437 258.98 130.397 265.893 136.129 270.197L139.203 266.103ZM124.475 295.4L139.867 269.456L135.464 266.843L120.071 292.787L124.475 295.4ZM174.341 273.659C154.094 293.811 131.367 293.889 122.938 291.622L121.608 296.566C131.634 299.263 156.293 298.845 177.953 277.288L174.341 273.659ZM182.911 266.216L174.469 273.54L177.825 277.407L186.266 270.083L182.911 266.216ZM228.712 222.521C225.611 231.733 217.593 240.889 208.482 248.697C199.431 256.452 189.62 262.61 183.397 265.884L185.78 270.415C192.301 266.986 202.438 260.619 211.813 252.585C221.127 244.603 230.013 234.704 233.565 224.154L228.712 222.521ZM229.942 169.162C232.327 183.407 234.118 206.464 228.712 222.521L233.565 224.154C239.4 206.823 237.397 182.686 234.991 168.316L229.942 169.162ZM233.188 171.195C241.501 168.753 249.324 165.995 254.98 163.069C257.792 161.615 260.234 160.037 261.932 158.319C263.605 156.628 264.95 154.375 264.46 151.74L259.426 152.678C259.468 152.901 259.462 153.536 258.291 154.72C257.145 155.879 255.252 157.165 252.628 158.521C247.414 161.218 239.966 163.867 231.745 166.283L233.188 171.195ZM264.46 151.74C263.947 148.991 261.835 146.633 259.399 144.677C256.871 142.647 253.528 140.684 249.772 138.825C242.244 135.099 232.663 131.601 223.609 128.726L222.059 133.605C231.014 136.45 240.313 139.856 247.501 143.413C251.102 145.196 254.076 146.969 256.193 148.669C258.402 150.443 259.264 151.81 259.426 152.678L264.46 151.74ZM211.476 110.137C215.064 117.061 217.992 124.394 220.395 131.942L225.274 130.389C222.798 122.612 219.765 115.004 216.022 107.781L211.476 110.137ZM251.802 68.847C252.94 69.8573 253.419 70.8524 253.553 71.825C253.695 72.8499 253.49 74.12 252.779 75.6782C251.326 78.861 248.074 82.5732 243.58 86.4779C234.67 94.2207 221.864 101.892 212.575 106.684L214.923 111.234C224.375 106.357 237.587 98.4689 246.938 90.3427C251.576 86.3129 255.516 82.0132 257.437 77.8043C258.413 75.6667 258.94 73.396 258.625 71.1223C258.303 68.7964 257.135 66.7352 255.202 65.0186L251.802 68.847ZM177.243 69.2361C187.696 66.9689 203.693 64.3282 218.549 63.6004C225.98 63.2362 233.04 63.3556 238.94 64.2083C244.932 65.0743 249.32 66.6427 251.802 68.847L255.202 65.0186C251.566 61.7903 245.933 60.0457 239.673 59.141C233.321 58.223 225.9 58.114 218.298 58.4865C203.085 59.2319 186.798 61.9246 176.157 64.2325L177.243 69.2361ZM137.048 48.0623C149.856 51.2449 163.029 59.1441 175.108 68.7388L178.292 64.7297C165.954 54.9287 152.109 46.529 138.283 43.0934L137.048 48.0623ZM103.724 40.8744C113.546 42.7945 124.351 44.9071 137.048 48.0623L138.283 43.0934C125.446 39.9036 114.527 37.7694 104.706 35.8495L103.724 40.8744ZM43.8367 21.7576C65.0655 33.329 82.0298 36.6335 103.724 40.8744L104.706 35.8495C83.0189 31.61 66.7554 28.4189 46.2872 17.262L43.8367 21.7576ZM11.1734 5.56C10.9171 5.56 10.8644 5.50755 11.2558 5.62303C11.5596 5.71268 12.0135 5.86731 12.6476 6.1114C13.9114 6.59792 15.7793 7.39641 18.3962 8.62073C23.6249 11.067 31.7471 15.1677 43.8367 21.7576L46.2872 17.262C34.1459 10.644 25.9238 6.48987 20.5659 3.98318C17.8896 2.73104 15.9036 1.87855 14.4869 1.33321C13.7808 1.06137 13.1877 0.854847 12.7047 0.712327C12.3092 0.595634 11.7297 0.44 11.1734 0.44V5.56Z" fill="black"/>
<path d="M20 87.388C25.8343 85.3604 46.3412 85.1287 81.6945 100.422C107.556 133.483 161.562 201.194 170.698 207.549C179.586 213.732 179.248 234.996 178.347 247.157C178.332 247.508 178.305 247.841 178.271 248.154C178.296 247.83 178.322 247.497 178.347 247.157C178.527 242.922 176.964 235.999 166.602 227.287C152.575 215.494 93.4063 191.425 72.7568 173.289C53.2678 156.171 34.896 125.497 20 87.388Z" fill="white"/>
<path d="M194.94 174.843C193.524 175.101 192.585 176.458 192.842 177.875C193.1 179.291 194.457 180.23 195.874 179.973L194.94 174.843ZM202.726 128.175C212.026 130.474 226.081 134.55 238.006 139.288C243.979 141.662 249.316 144.162 253.235 146.64C255.195 147.879 256.718 149.062 257.776 150.159C258.857 151.279 259.276 152.127 259.38 152.686L264.505 151.731C264.138 149.758 262.958 148.021 261.528 146.539C260.076 145.034 258.177 143.597 256.021 142.233C251.705 139.504 246.027 136.865 239.931 134.443C227.718 129.59 213.421 125.448 203.977 123.113L202.726 128.175ZM259.38 152.686C259.414 152.869 259.427 153.365 258.599 154.319C257.766 155.279 256.339 156.381 254.27 157.573C250.157 159.945 244.143 162.319 237.195 164.558C223.344 169.022 206.36 172.765 194.94 174.843L195.874 179.973C207.418 177.872 224.646 174.08 238.794 169.521C245.845 167.248 252.277 164.74 256.874 162.09C259.16 160.772 261.155 159.328 262.536 157.737C263.922 156.141 264.943 154.081 264.505 151.731L259.38 152.686Z" fill="black"/>
<path d="M25.2566 40.5438C26.7872 36.2634 31.0861 34.8544 33.4818 35.3309" stroke="black" stroke-width="4.71708" stroke-linecap="round"/>
<path d="M84.4316 53.3982L95.6037 50.4189" stroke="black" stroke-width="4.71708" stroke-linecap="round"/>
<circle cx="93.8659" cy="63.5771" r="5.46188" fill="black"/>
<path d="M150.347 86.666C152.416 93.7416 152.83 107.843 150.347 114.1C147.864 120.356 141.161 133.878 136.568 139.05" stroke="black" stroke-width="7.19976" stroke-linecap="round"/>
<path d="M165.74 99.3276C167.808 106.403 168.222 120.505 165.74 126.761C163.257 133.018 156.554 146.54 151.961 151.712" stroke="black" stroke-width="7.19976" stroke-linecap="round"/>
<path d="M20.9515 87.0125L19.5554 87.561L20.6524 90.3532L22.0485 89.8047L20.9515 87.0125ZM80.1235 101.126C80.7958 101.61 81.7332 101.457 82.2173 100.785C82.7014 100.113 82.5488 99.1752 81.8765 98.6911L80.1235 101.126ZM22.0485 89.8047C25.2547 88.5451 29.847 88.1166 35.226 88.3709C40.57 88.6236 46.5436 89.5417 52.4218 90.8597C58.2971 92.1769 64.044 93.8862 68.9295 95.7063C73.8429 97.5368 77.7874 99.4437 80.1235 101.126L81.8765 98.6911C79.2126 96.7731 74.9696 94.7551 69.9768 92.895C64.956 91.0245 59.0779 89.2775 53.0782 87.9323C47.0814 86.5878 40.93 85.6372 35.3677 85.3743C29.8405 85.113 24.7453 85.5221 20.9515 87.0125L22.0485 89.8047Z" fill="black"/>
<defs>
<linearGradient id="paint0_linear_104_217" x1="11.5" y1="10.4085" x2="209.5" y2="266.908" gradientUnits="userSpaceOnUse">
<stop stop-color="#4E72D2"/>
<stop offset="1" stop-color="#9733FF"/>
</linearGradient>
</defs>
</svg>
