<svg width="206" height="110" viewBox="0 0 206 130" fill="none" xmlns="http://www.w3.org/2000/svg">
<path d="M91.706 65.1307C91.5696 63.7557 90.9844 62.6875 89.9503 61.9261C88.9162 61.1648 87.5128 60.7841 85.7401 60.7841C84.5355 60.7841 83.5185 60.9545 82.6889 61.2955C81.8594 61.625 81.223 62.0852 80.7798 62.6761C80.348 63.267 80.1321 63.9375 80.1321 64.6875C80.1094 65.3125 80.2401 65.858 80.5241 66.3239C80.8196 66.7898 81.223 67.1932 81.7344 67.5341C82.2457 67.8636 82.8366 68.1534 83.5071 68.4034C84.1776 68.642 84.8935 68.8466 85.6548 69.017L88.7912 69.767C90.3139 70.108 91.7116 70.5625 92.9844 71.1307C94.2571 71.6989 95.3594 72.3977 96.2912 73.2273C97.223 74.0568 97.9446 75.0341 98.456 76.1591C98.9787 77.2841 99.2457 78.5739 99.2571 80.0284C99.2457 82.1648 98.7003 84.017 97.6207 85.5852C96.5526 87.142 95.0071 88.3523 92.9844 89.2159C90.973 90.0682 88.5469 90.4943 85.706 90.4943C82.8878 90.4943 80.4332 90.0625 78.3423 89.1989C76.2628 88.3352 74.6378 87.0568 73.4673 85.3636C72.3082 83.6591 71.7003 81.5511 71.6435 79.0398H78.7855C78.8651 80.2102 79.2003 81.1875 79.7912 81.9716C80.3935 82.7443 81.1946 83.3295 82.1946 83.7273C83.206 84.1136 84.348 84.3068 85.6207 84.3068C86.8707 84.3068 87.956 84.125 88.8764 83.7614C89.8082 83.3977 90.5298 82.892 91.0412 82.2443C91.5526 81.5966 91.8082 80.8523 91.8082 80.0114C91.8082 79.2273 91.5753 78.5682 91.1094 78.0341C90.6548 77.5 89.9844 77.0455 89.098 76.6705C88.223 76.2955 87.1491 75.9545 85.8764 75.6477L82.0753 74.6932C79.1321 73.9773 76.8082 72.858 75.1037 71.3352C73.3991 69.8125 72.5526 67.7614 72.5639 65.1818C72.5526 63.0682 73.1151 61.2216 74.2514 59.642C75.3991 58.0625 76.973 56.8295 78.973 55.9432C80.973 55.0568 83.2457 54.6136 85.7912 54.6136C88.3821 54.6136 90.6435 55.0568 92.5753 55.9432C94.5185 56.8295 96.0298 58.0625 97.1094 59.642C98.1889 61.2216 98.7457 63.0511 98.7798 65.1307H91.706ZM104.222 90V55.0909H111.602V69.4943H126.585V55.0909H133.949V90H126.585V75.5795H111.602V90H104.222ZM146.051 90H138.142L150.193 55.0909H159.705L171.739 90H163.83L155.085 63.0682H154.812L146.051 90ZM145.557 76.2784H164.239V82.0398H145.557V76.2784ZM175.94 90V55.0909H183.321V70.483H183.781L196.344 55.0909H205.19L192.236 70.7216L205.344 90H196.514L186.952 75.6477L183.321 80.0795V90H175.94Z" fill="white"/>
<path d="M2.02345 94.787L18.6006 37.1813C20.4589 30.7237 29.9332 31.8636 30.2068 38.5777L31.8072 77.8609L45.5975 87.8268C50.5008 91.3703 48.9011 99.0455 42.9906 100.335L36.6571 101.717C26.9965 103.825 17.0387 104.202 7.24625 102.832C3.42079 102.297 0.955231 98.4991 2.02345 94.787Z" fill="url(#paint0_linear_62_173)"/>
<defs>
<linearGradient id="paint0_linear_62_173" x1="21" y1="31" x2="61.1642" y2="113.888" gradientUnits="userSpaceOnUse">
<stop stop-color="#E94BAA"/>
<stop offset="0.0001" stop-color="#007AFF"/>
<stop offset="0.386" stop-color="#F96171"/>
<stop offset="0.811" stop-color="#8D39FF"/>
</linearGradient>
</defs>
</svg>
